<svg id="visual" viewBox="0 0 960 300" width="960" height="300" xmlns="http://www.w3.org/2000/svg" xmlns:xlink="http://www.w3.org/1999/xlink" version="1.1"><rect x="0" y="0" width="960" height="300" fill="#ffffff"></rect><path d="M0 64L20 71C40 78 80 92 120 95.2C160 98.3 200 90.7 240 92.8C280 95 320 107 360 104.5C400 102 440 85 480 89.2C520 93.3 560 118.7 600 130C640 141.3 680 138.7 720 134.3C760 130 800 124 840 111.5C880 99 920 80 940 70.5L960 61L960 301L940 301C920 301 880 301 840 301C800 301 760 301 720 301C680 301 640 301 600 301C560 301 520 301 480 301C440 301 400 301 360 301C320 301 280 301 240 301C200 301 160 301 120 301C80 301 40 301 20 301L0 301Z" fill="#ffffff"></path><path d="M0 102L20 99.7C40 97.3 80 92.7 120 99.5C160 106.3 200 124.7 240 124C280 123.3 320 103.7 360 106.2C400 108.7 440 133.3 480 130.7C520 128 560 98 600 89.3C640 80.7 680 93.3 720 110C760 126.7 800 147.3 840 141.3C880 135.3 920 102.7 940 86.3L960 70L960 301L940 301C920 301 880 301 840 301C800 301 760 301 720 301C680 301 640 301 600 301C560 301 520 301 480 301C440 301 400 301 360 301C320 301 280 301 240 301C200 301 160 301 120 301C80 301 40 301 20 301L0 301Z" fill="#b8b8b8"></path><path d="M0 102L20 115.3C40 128.7 80 155.3 120 157.5C160 159.7 200 137.3 240 129.7C280 122 320 129 360 131.5C400 134 440 132 480 129.7C520 127.3 560 124.7 600 127.7C640 130.7 680 139.3 720 143.8C760 148.3 800 148.7 840 142.3C880 136 920 123 940 116.5L960 110L960 301L940 301C920 301 880 301 840 301C800 301 760 301 720 301C680 301 640 301 600 301C560 301 520 301 480 301C440 301 400 301 360 301C320 301 280 301 240 301C200 301 160 301 120 301C80 301 40 301 20 301L0 301Z" fill="#767676"></path><path d="M0 123L20 124.8C40 126.7 80 130.3 120 130.7C160 131 200 128 240 126.2C280 124.3 320 123.7 360 125.8C400 128 440 133 480 137.5C520 142 560 146 600 154.3C640 162.7 680 175.3 720 179.5C760 183.7 800 179.3 840 167.7C880 156 920 137 940 127.5L960 118L960 301L940 301C920 301 880 301 840 301C800 301 760 301 720 301C680 301 640 301 600 301C560 301 520 301 480 301C440 301 400 301 360 301C320 301 280 301 240 301C200 301 160 301 120 301C80 301 40 301 20 301L0 301Z" fill="#3a3a3a"></path><path d="M0 139L20 142.3C40 145.7 80 152.3 120 162.5C160 172.7 200 186.3 240 191.7C280 197 320 194 360 185.3C400 176.7 440 162.3 480 163.7C520 165 560 182 600 184.3C640 186.7 680 174.3 720 166.8C760 159.3 800 156.7 840 154.3C880 152 920 150 940 149L960 148L960 301L940 301C920 301 880 301 840 301C800 301 760 301 720 301C680 301 640 301 600 301C560 301 520 301 480 301C440 301 400 301 360 301C320 301 280 301 240 301C200 301 160 301 120 301C80 301 40 301 20 301L0 301Z" fill="#1a1a1a"></path><path d="M0 228L20 218.7C40 209.3 80 190.7 120 185.3C160 180 200 188 240 192.2C280 196.3 320 196.7 360 200.5C400 204.3 440 211.7 480 212.5C520 213.3 560 207.7 600 200.7C640 193.7 680 185.3 720 188.7C760 192 800 207 840 207C880 207 920 192 940 184.5L960 177L960 301L940 301C920 301 880 301 840 301C800 301 760 301 720 301C680 301 640 301 600 301C560 301 520 301 480 301C440 301 400 301 360 301C320 301 280 301 240 301C200 301 160 301 120 301C80 301 40 301 20 301L0 301Z" fill="#1a1a1a"></path><path d="M0 226L20 228.5C40 231 80 236 120 229.8C160 223.7 200 206.3 240 201.2C280 196 320 203 360 206.3C400 209.7 440 209.3 480 210.8C520 212.3 560 215.7 600 219.8C640 224 680 229 720 226.5C760 224 800 214 840 208.3C880 202.7 920 201.3 940 200.7L960 200L960 301L940 301C920 301 880 301 840 301C800 301 760 301 720 301C680 301 640 301 600 301C560 301 520 301 480 301C440 301 400 301 360 301C320 301 280 301 240 301C200 301 160 301 120 301C80 301 40 301 20 301L0 301Z" fill="#3a3a3a"></path><path d="M0 222L20 224.5C40 227 80 232 120 238.7C160 245.3 200 253.7 240 256.5C280 259.3 320 256.7 360 247.7C400 238.7 440 223.3 480 224.7C520 226 560 244 600 249C640 254 680 246 720 242.8C760 239.7 800 241.3 840 239.5C880 237.7 920 232.3 940 229.7L960 227L960 301L940 301C920 301 880 301 840 301C800 301 760 301 720 301C680 301 640 301 600 301C560 301 520 301 480 301C440 301 400 301 360 301C320 301 280 301 240 301C200 301 160 301 120 301C80 301 40 301 20 301L0 301Z" fill="#767676"></path><path d="M0 274L20 268.7C40 263.3 80 252.7 120 248.7C160 244.7 200 247.3 240 247.7C280 248 320 246 360 248.5C400 251 440 258 480 256.5C520 255 560 245 600 247.2C640 249.3 680 263.7 720 264C760 264.3 800 250.7 840 249.5C880 248.3 920 259.7 940 265.3L960 271L960 301L940 301C920 301 880 301 840 301C800 301 760 301 720 301C680 301 640 301 600 301C560 301 520 301 480 301C440 301 400 301 360 301C320 301 280 301 240 301C200 301 160 301 120 301C80 301 40 301 20 301L0 301Z" fill="#b8b8b8"></path><path d="M0 286L20 286.5C40 287 80 288 120 286.7C160 285.3 200 281.7 240 279.8C280 278 320 278 360 280.5C400 283 440 288 480 285.7C520 283.3 560 273.7 600 273.3C640 273 680 282 720 285.3C760 288.7 800 286.3 840 285.3C880 284.3 920 284.7 940 284.8L960 285L960 301L940 301C920 301 880 301 840 301C800 301 760 301 720 301C680 301 640 301 600 301C560 301 520 301 480 301C440 301 400 301 360 301C320 301 280 301 240 301C200 301 160 301 120 301C80 301 40 301 20 301L0 301Z" fill="#ffffff"></path></svg>