<svg id="visual" viewBox="0 0 960 300" width="960" height="300" xmlns="http://www.w3.org/2000/svg" xmlns:xlink="http://www.w3.org/1999/xlink" version="1.1"><path d="M0 34L80 40C160 46 320 58 480 57C640 56 800 42 880 35L960 28L960 0L880 0C800 0 640 0 480 0C320 0 160 0 80 0L0 0Z" fill="#ffffff"></path><path d="M0 37L80 43C160 49 320 61 480 63.5C640 66 800 59 880 55.5L960 52L960 26L880 33C800 40 640 54 480 55C320 56 160 44 80 38L0 32Z" fill="#c5c5c5"></path><path d="M0 58L80 64.5C160 71 320 84 480 84.5C640 85 800 73 880 67L960 61L960 50L880 53.5C800 57 640 64 480 61.5C320 59 160 47 80 41L0 35Z" fill="#8e8e8e"></path><path d="M0 115L80 114.5C160 114 320 113 480 111.5C640 110 800 108 880 107L960 106L960 59L880 65C800 71 640 83 480 82.5C320 82 160 69 80 62.5L0 56Z" fill="#5a5a5a"></path><path d="M0 124L80 123.5C160 123 320 122 480 122C640 122 800 123 880 123.5L960 124L960 104L880 105C800 106 640 108 480 109.5C320 111 160 112 80 112.5L0 113Z" fill="#2b2b2b"></path><path d="M0 139L80 136C160 133 320 127 480 128C640 129 800 137 880 141L960 145L960 122L880 121.5C800 121 640 120 480 120C320 120 160 121 80 121.5L0 122Z" fill="#1a1a1a"></path><path d="M0 145L80 141C160 137 320 129 480 132.5C640 136 800 151 880 158.5L960 166L960 143L880 139C800 135 640 127 480 126C320 125 160 131 80 134L0 137Z" fill="#1a1a1a"></path><path d="M0 169L80 165C160 161 320 153 480 156.5C640 160 800 175 880 182.5L960 190L960 164L880 156.5C800 149 640 134 480 130.5C320 127 160 135 80 139L0 143Z" fill="#2b2b2b"></path><path d="M0 193L80 187C160 181 320 169 480 173C640 177 800 197 880 207L960 217L960 188L880 180.5C800 173 640 158 480 154.5C320 151 160 159 80 163L0 167Z" fill="#5a5a5a"></path><path d="M0 226L80 222C160 218 320 210 480 212.5C640 215 800 228 880 234.5L960 241L960 215L880 205C800 195 640 175 480 171C320 167 160 179 80 185L0 191Z" fill="#8e8e8e"></path><path d="M0 256L80 247C160 238 320 220 480 223.5C640 227 800 252 880 264.5L960 277L960 239L880 232.5C800 226 640 213 480 210.5C320 208 160 216 80 220L0 224Z" fill="#c5c5c5"></path><path d="M0 301L80 301C160 301 320 301 480 301C640 301 800 301 880 301L960 301L960 275L880 262.5C800 250 640 225 480 221.5C320 218 160 236 80 245L0 254Z" fill="#ffffff"></path></svg>