<svg id="visual" viewBox="0 0 960 300" width="960" height="300" xmlns="http://www.w3.org/2000/svg" xmlns:xlink="http://www.w3.org/1999/xlink" version="1.1"><rect x="0" y="0" width="960" height="300" fill="#e9e9e9"></rect><path d="M0 94L8.8 94.7C17.7 95.3 35.3 96.7 53.2 83.8C71 71 89 44 106.8 36.5C124.7 29 142.3 41 160 49.5C177.7 58 195.3 63 213.2 59.3C231 55.7 249 43.3 266.8 43.7C284.7 44 302.3 57 320 62C337.7 67 355.3 64 373.2 55C391 46 409 31 426.8 24.8C444.7 18.7 462.3 21.3 480 26.5C497.7 31.7 515.3 39.3 533.2 44.3C551 49.3 569 51.7 586.8 55C604.7 58.3 622.3 62.7 640 62.7C657.7 62.7 675.3 58.3 693.2 63.5C711 68.7 729 83.3 746.8 87.3C764.7 91.3 782.3 84.7 800 81C817.7 77.3 835.3 76.7 853.2 67C871 57.3 889 38.7 906.8 41.3C924.7 44 942.3 68 951.2 80L960 92L960 301L951.2 301C942.3 301 924.7 301 906.8 301C889 301 871 301 853.2 301C835.3 301 817.7 301 800 301C782.3 301 764.7 301 746.8 301C729 301 711 301 693.2 301C675.3 301 657.7 301 640 301C622.3 301 604.7 301 586.8 301C569 301 551 301 533.2 301C515.3 301 497.7 301 480 301C462.3 301 444.7 301 426.8 301C409 301 391 301 373.2 301C355.3 301 337.7 301 320 301C302.3 301 284.7 301 266.8 301C249 301 231 301 213.2 301C195.3 301 177.7 301 160 301C142.3 301 124.7 301 106.8 301C89 301 71 301 53.2 301C35.3 301 17.7 301 8.8 301L0 301Z" fill="#e9e9e9"></path><path d="M0 55L8.8 54.2C17.7 53.3 35.3 51.7 53.2 50.8C71 50 89 50 106.8 61.3C124.7 72.7 142.3 95.3 160 96.5C177.7 97.7 195.3 77.3 213.2 69.8C231 62.3 249 67.7 266.8 72.7C284.7 77.7 302.3 82.3 320 77.3C337.7 72.3 355.3 57.7 373.2 53.2C391 48.7 409 54.3 426.8 56.7C444.7 59 462.3 58 480 56.5C497.7 55 515.3 53 533.2 54.7C551 56.3 569 61.7 586.8 70C604.7 78.3 622.3 89.7 640 98C657.7 106.3 675.3 111.7 693.2 107C711 102.3 729 87.7 746.8 73.8C764.7 60 782.3 47 800 44.5C817.7 42 835.3 50 853.2 61.8C871 73.7 889 89.3 906.8 98.8C924.7 108.3 942.3 111.7 951.2 113.3L960 115L960 301L951.2 301C942.3 301 924.7 301 906.8 301C889 301 871 301 853.2 301C835.3 301 817.7 301 800 301C782.3 301 764.7 301 746.8 301C729 301 711 301 693.2 301C675.3 301 657.7 301 640 301C622.3 301 604.7 301 586.8 301C569 301 551 301 533.2 301C515.3 301 497.7 301 480 301C462.3 301 444.7 301 426.8 301C409 301 391 301 373.2 301C355.3 301 337.7 301 320 301C302.3 301 284.7 301 266.8 301C249 301 231 301 213.2 301C195.3 301 177.7 301 160 301C142.3 301 124.7 301 106.8 301C89 301 71 301 53.2 301C35.3 301 17.7 301 8.8 301L0 301Z" fill="#d4d4d4"></path><path d="M0 104L8.8 101.2C17.7 98.3 35.3 92.7 53.2 93.3C71 94 89 101 106.8 107.2C124.7 113.3 142.3 118.7 160 122C177.7 125.3 195.3 126.7 213.2 117.3C231 108 249 88 266.8 89.2C284.7 90.3 302.3 112.7 320 114.8C337.7 117 355.3 99 373.2 91C391 83 409 85 426.8 81.8C444.7 78.7 462.3 70.3 480 67.8C497.7 65.3 515.3 68.7 533.2 69.2C551 69.7 569 67.3 586.8 76.8C604.7 86.3 622.3 107.7 640 118C657.7 128.3 675.3 127.7 693.2 118.8C711 110 729 93 746.8 94.7C764.7 96.3 782.3 116.7 800 127.5C817.7 138.3 835.3 139.7 853.2 131.7C871 123.7 889 106.3 906.8 102C924.7 97.7 942.3 106.3 951.2 110.7L960 115L960 301L951.2 301C942.3 301 924.7 301 906.8 301C889 301 871 301 853.2 301C835.3 301 817.7 301 800 301C782.3 301 764.7 301 746.8 301C729 301 711 301 693.2 301C675.3 301 657.7 301 640 301C622.3 301 604.7 301 586.8 301C569 301 551 301 533.2 301C515.3 301 497.7 301 480 301C462.3 301 444.7 301 426.8 301C409 301 391 301 373.2 301C355.3 301 337.7 301 320 301C302.3 301 284.7 301 266.8 301C249 301 231 301 213.2 301C195.3 301 177.7 301 160 301C142.3 301 124.7 301 106.8 301C89 301 71 301 53.2 301C35.3 301 17.7 301 8.8 301L0 301Z" fill="#bfbfbf"></path><path d="M0 109L8.8 110C17.7 111 35.3 113 53.2 114.3C71 115.7 89 116.3 106.8 116.2C124.7 116 142.3 115 160 112.2C177.7 109.3 195.3 104.7 213.2 102.5C231 100.3 249 100.7 266.8 106.8C284.7 113 302.3 125 320 127.8C337.7 130.7 355.3 124.3 373.2 123.5C391 122.7 409 127.3 426.8 129.3C444.7 131.3 462.3 130.7 480 134.7C497.7 138.7 515.3 147.3 533.2 146.5C551 145.7 569 135.3 586.8 131.2C604.7 127 622.3 129 640 125.5C657.7 122 675.3 113 693.2 106.8C711 100.7 729 97.3 746.8 105.8C764.7 114.3 782.3 134.7 800 145C817.7 155.3 835.3 155.7 853.2 155.5C871 155.3 889 154.7 906.8 143C924.7 131.3 942.3 108.7 951.2 97.3L960 86L960 301L951.2 301C942.3 301 924.7 301 906.8 301C889 301 871 301 853.2 301C835.3 301 817.7 301 800 301C782.3 301 764.7 301 746.8 301C729 301 711 301 693.2 301C675.3 301 657.7 301 640 301C622.3 301 604.7 301 586.8 301C569 301 551 301 533.2 301C515.3 301 497.7 301 480 301C462.3 301 444.7 301 426.8 301C409 301 391 301 373.2 301C355.3 301 337.7 301 320 301C302.3 301 284.7 301 266.8 301C249 301 231 301 213.2 301C195.3 301 177.7 301 160 301C142.3 301 124.7 301 106.8 301C89 301 71 301 53.2 301C35.3 301 17.7 301 8.8 301L0 301Z" fill="#aaaaaa"></path><path d="M0 176L8.8 166C17.7 156 35.3 136 53.2 131.3C71 126.7 89 137.3 106.8 144.5C124.7 151.7 142.3 155.3 160 159.5C177.7 163.7 195.3 168.3 213.2 166.8C231 165.3 249 157.7 266.8 147C284.7 136.3 302.3 122.7 320 118.8C337.7 115 355.3 121 373.2 125.8C391 130.7 409 134.3 426.8 140.7C444.7 147 462.3 156 480 152.8C497.7 149.7 515.3 134.3 533.2 131.2C551 128 569 137 586.8 144C604.7 151 622.3 156 640 154.7C657.7 153.3 675.3 145.7 693.2 144.5C711 143.3 729 148.7 746.8 151.8C764.7 155 782.3 156 800 151.5C817.7 147 835.3 137 853.2 137.5C871 138 889 149 906.8 151.5C924.7 154 942.3 148 951.2 145L960 142L960 301L951.2 301C942.3 301 924.7 301 906.8 301C889 301 871 301 853.2 301C835.3 301 817.7 301 800 301C782.3 301 764.7 301 746.8 301C729 301 711 301 693.2 301C675.3 301 657.7 301 640 301C622.3 301 604.7 301 586.8 301C569 301 551 301 533.2 301C515.3 301 497.7 301 480 301C462.3 301 444.7 301 426.8 301C409 301 391 301 373.2 301C355.3 301 337.7 301 320 301C302.3 301 284.7 301 266.8 301C249 301 231 301 213.2 301C195.3 301 177.7 301 160 301C142.3 301 124.7 301 106.8 301C89 301 71 301 53.2 301C35.3 301 17.7 301 8.8 301L0 301Z" fill="#969696"></path><path d="M0 171L8.8 165.3C17.7 159.7 35.3 148.3 53.2 151.3C71 154.3 89 171.7 106.8 178C124.7 184.3 142.3 179.7 160 176C177.7 172.3 195.3 169.7 213.2 162.2C231 154.7 249 142.3 266.8 139C284.7 135.7 302.3 141.3 320 146.3C337.7 151.3 355.3 155.7 373.2 160.7C391 165.7 409 171.3 426.8 171.3C444.7 171.3 462.3 165.7 480 157.2C497.7 148.7 515.3 137.3 533.2 140C551 142.7 569 159.3 586.8 165.7C604.7 172 622.3 168 640 170.3C657.7 172.7 675.3 181.3 693.2 182.3C711 183.3 729 176.7 746.8 170.5C764.7 164.3 782.3 158.7 800 156.3C817.7 154 835.3 155 853.2 158.2C871 161.3 889 166.7 906.8 162.3C924.7 158 942.3 144 951.2 137L960 130L960 301L951.2 301C942.3 301 924.7 301 906.8 301C889 301 871 301 853.2 301C835.3 301 817.7 301 800 301C782.3 301 764.7 301 746.8 301C729 301 711 301 693.2 301C675.3 301 657.7 301 640 301C622.3 301 604.7 301 586.8 301C569 301 551 301 533.2 301C515.3 301 497.7 301 480 301C462.3 301 444.7 301 426.8 301C409 301 391 301 373.2 301C355.3 301 337.7 301 320 301C302.3 301 284.7 301 266.8 301C249 301 231 301 213.2 301C195.3 301 177.7 301 160 301C142.3 301 124.7 301 106.8 301C89 301 71 301 53.2 301C35.3 301 17.7 301 8.8 301L0 301Z" fill="#838383"></path><path d="M0 149L8.8 154.8C17.7 160.7 35.3 172.3 53.2 176.2C71 180 89 176 106.8 170.7C124.7 165.3 142.3 158.7 160 159C177.7 159.3 195.3 166.7 213.2 171.5C231 176.3 249 178.7 266.8 174.7C284.7 170.7 302.3 160.3 320 161.5C337.7 162.7 355.3 175.3 373.2 180.2C391 185 409 182 426.8 178.8C444.7 175.7 462.3 172.3 480 177.5C497.7 182.7 515.3 196.3 533.2 196.5C551 196.7 569 183.3 586.8 180.3C604.7 177.3 622.3 184.7 640 182.3C657.7 180 675.3 168 693.2 165.8C711 163.7 729 171.3 746.8 173.2C764.7 175 782.3 171 800 168.5C817.7 166 835.3 165 853.2 163C871 161 889 158 906.8 155.5C924.7 153 942.3 151 951.2 150L960 149L960 301L951.2 301C942.3 301 924.7 301 906.8 301C889 301 871 301 853.2 301C835.3 301 817.7 301 800 301C782.3 301 764.7 301 746.8 301C729 301 711 301 693.2 301C675.3 301 657.7 301 640 301C622.3 301 604.7 301 586.8 301C569 301 551 301 533.2 301C515.3 301 497.7 301 480 301C462.3 301 444.7 301 426.8 301C409 301 391 301 373.2 301C355.3 301 337.7 301 320 301C302.3 301 284.7 301 266.8 301C249 301 231 301 213.2 301C195.3 301 177.7 301 160 301C142.3 301 124.7 301 106.8 301C89 301 71 301 53.2 301C35.3 301 17.7 301 8.8 301L0 301Z" fill="#707070"></path><path d="M0 187L8.8 189.7C17.7 192.3 35.3 197.7 53.2 203.2C71 208.7 89 214.3 106.8 213.8C124.7 213.3 142.3 206.7 160 198.3C177.7 190 195.3 180 213.2 182.3C231 184.7 249 199.3 266.8 204.8C284.7 210.3 302.3 206.7 320 200.8C337.7 195 355.3 187 373.2 183C391 179 409 179 426.8 185.3C444.7 191.7 462.3 204.3 480 203.7C497.7 203 515.3 189 533.2 190.3C551 191.7 569 208.3 586.8 214.5C604.7 220.7 622.3 216.3 640 207C657.7 197.7 675.3 183.3 693.2 179.7C711 176 729 183 746.8 184.8C764.7 186.7 782.3 183.3 800 185.3C817.7 187.3 835.3 194.7 853.2 199.8C871 205 889 208 906.8 209.5C924.7 211 942.3 211 951.2 211L960 211L960 301L951.2 301C942.3 301 924.7 301 906.8 301C889 301 871 301 853.2 301C835.3 301 817.7 301 800 301C782.3 301 764.7 301 746.8 301C729 301 711 301 693.2 301C675.3 301 657.7 301 640 301C622.3 301 604.7 301 586.8 301C569 301 551 301 533.2 301C515.3 301 497.7 301 480 301C462.3 301 444.7 301 426.8 301C409 301 391 301 373.2 301C355.3 301 337.7 301 320 301C302.3 301 284.7 301 266.8 301C249 301 231 301 213.2 301C195.3 301 177.7 301 160 301C142.3 301 124.7 301 106.8 301C89 301 71 301 53.2 301C35.3 301 17.7 301 8.8 301L0 301Z" fill="#5d5d5d"></path><path d="M0 227L8.8 225.3C17.7 223.7 35.3 220.3 53.2 216.7C71 213 89 209 106.8 210.2C124.7 211.3 142.3 217.7 160 217.2C177.7 216.7 195.3 209.3 213.2 212.5C231 215.7 249 229.3 266.8 232C284.7 234.7 302.3 226.3 320 224.7C337.7 223 355.3 228 373.2 228.8C391 229.7 409 226.3 426.8 219.5C444.7 212.7 462.3 202.3 480 200.5C497.7 198.7 515.3 205.3 533.2 205.5C551 205.7 569 199.3 586.8 200.5C604.7 201.7 622.3 210.3 640 212.7C657.7 215 675.3 211 693.2 213.8C711 216.7 729 226.3 746.8 223.8C764.7 221.3 782.3 206.7 800 206C817.7 205.3 835.3 218.7 853.2 221.3C871 224 889 216 906.8 209.3C924.7 202.7 942.3 197.3 951.2 194.7L960 192L960 301L951.2 301C942.3 301 924.7 301 906.8 301C889 301 871 301 853.2 301C835.3 301 817.7 301 800 301C782.3 301 764.7 301 746.8 301C729 301 711 301 693.2 301C675.3 301 657.7 301 640 301C622.3 301 604.7 301 586.8 301C569 301 551 301 533.2 301C515.3 301 497.7 301 480 301C462.3 301 444.7 301 426.8 301C409 301 391 301 373.2 301C355.3 301 337.7 301 320 301C302.3 301 284.7 301 266.8 301C249 301 231 301 213.2 301C195.3 301 177.7 301 160 301C142.3 301 124.7 301 106.8 301C89 301 71 301 53.2 301C35.3 301 17.7 301 8.8 301L0 301Z" fill="#4b4b4b"></path><path d="M0 219L8.8 224.2C17.7 229.3 35.3 239.7 53.2 244.7C71 249.7 89 249.3 106.8 246.8C124.7 244.3 142.3 239.7 160 236C177.7 232.3 195.3 229.7 213.2 233.3C231 237 249 247 266.8 248.8C284.7 250.7 302.3 244.3 320 239.8C337.7 235.3 355.3 232.7 373.2 235.3C391 238 409 246 426.8 244.8C444.7 243.7 462.3 233.3 480 227.3C497.7 221.3 515.3 219.7 533.2 219.3C551 219 569 220 586.8 226.7C604.7 233.3 622.3 245.7 640 244.5C657.7 243.3 675.3 228.7 693.2 229C711 229.3 729 244.7 746.8 251.7C764.7 258.7 782.3 257.3 800 250.2C817.7 243 835.3 230 853.2 227.7C871 225.3 889 233.7 906.8 240.3C924.7 247 942.3 252 951.2 254.5L960 257L960 301L951.2 301C942.3 301 924.7 301 906.8 301C889 301 871 301 853.2 301C835.3 301 817.7 301 800 301C782.3 301 764.7 301 746.8 301C729 301 711 301 693.2 301C675.3 301 657.7 301 640 301C622.3 301 604.7 301 586.8 301C569 301 551 301 533.2 301C515.3 301 497.7 301 480 301C462.3 301 444.7 301 426.8 301C409 301 391 301 373.2 301C355.3 301 337.7 301 320 301C302.3 301 284.7 301 266.8 301C249 301 231 301 213.2 301C195.3 301 177.7 301 160 301C142.3 301 124.7 301 106.8 301C89 301 71 301 53.2 301C35.3 301 17.7 301 8.8 301L0 301Z" fill="#3a3a3a"></path><path d="M0 259L8.8 257.8C17.7 256.7 35.3 254.3 53.2 250.5C71 246.7 89 241.3 106.8 244.3C124.7 247.3 142.3 258.7 160 261C177.7 263.3 195.3 256.7 213.2 255.5C231 254.3 249 258.7 266.8 262.5C284.7 266.3 302.3 269.7 320 267.8C337.7 266 355.3 259 373.2 253.7C391 248.3 409 244.7 426.8 248.5C444.7 252.3 462.3 263.7 480 269.7C497.7 275.7 515.3 276.3 533.2 270.2C551 264 569 251 586.8 248C604.7 245 622.3 252 640 257.2C657.7 262.3 675.3 265.7 693.2 263.2C711 260.7 729 252.3 746.8 251.7C764.7 251 782.3 258 800 259.8C817.7 261.7 835.3 258.3 853.2 255.7C871 253 889 251 906.8 252.5C924.7 254 942.3 259 951.2 261.5L960 264L960 301L951.2 301C942.3 301 924.7 301 906.8 301C889 301 871 301 853.2 301C835.3 301 817.7 301 800 301C782.3 301 764.7 301 746.8 301C729 301 711 301 693.2 301C675.3 301 657.7 301 640 301C622.3 301 604.7 301 586.8 301C569 301 551 301 533.2 301C515.3 301 497.7 301 480 301C462.3 301 444.7 301 426.8 301C409 301 391 301 373.2 301C355.3 301 337.7 301 320 301C302.3 301 284.7 301 266.8 301C249 301 231 301 213.2 301C195.3 301 177.7 301 160 301C142.3 301 124.7 301 106.8 301C89 301 71 301 53.2 301C35.3 301 17.7 301 8.8 301L0 301Z" fill="#292929"></path><path d="M0 270L8.8 270.8C17.7 271.7 35.3 273.3 53.2 274.5C71 275.7 89 276.3 106.8 278.8C124.7 281.3 142.3 285.7 160 283.5C177.7 281.3 195.3 272.7 213.2 268.8C231 265 249 266 266.8 268C284.7 270 302.3 273 320 273.7C337.7 274.3 355.3 272.7 373.2 273.5C391 274.3 409 277.7 426.8 276C444.7 274.3 462.3 267.7 480 265.5C497.7 263.3 515.3 265.7 533.2 267.8C551 270 569 272 586.8 274.2C604.7 276.3 622.3 278.7 640 280.5C657.7 282.3 675.3 283.7 693.2 284.7C711 285.7 729 286.3 746.8 285.7C764.7 285 782.3 283 800 279C817.7 275 835.3 269 853.2 265.8C871 262.7 889 262.3 906.8 267.3C924.7 272.3 942.3 282.7 951.2 287.8L960 293L960 301L951.2 301C942.3 301 924.7 301 906.8 301C889 301 871 301 853.2 301C835.3 301 817.7 301 800 301C782.3 301 764.7 301 746.8 301C729 301 711 301 693.2 301C675.3 301 657.7 301 640 301C622.3 301 604.7 301 586.8 301C569 301 551 301 533.2 301C515.3 301 497.7 301 480 301C462.3 301 444.7 301 426.8 301C409 301 391 301 373.2 301C355.3 301 337.7 301 320 301C302.3 301 284.7 301 266.8 301C249 301 231 301 213.2 301C195.3 301 177.7 301 160 301C142.3 301 124.7 301 106.8 301C89 301 71 301 53.2 301C35.3 301 17.7 301 8.8 301L0 301Z" fill="#1a1a1a"></path></svg>