<svg id="visual" viewBox="0 0 960 300" width="960" height="300" xmlns="http://www.w3.org/2000/svg" xmlns:xlink="http://www.w3.org/1999/xlink" version="1.1"><rect x="0" y="0" width="960" height="300" fill="#e9e9e9"></rect><path d="M0 23L10.7 25.2C21.3 27.3 42.7 31.7 64 41.7C85.3 51.7 106.7 67.3 128 69.2C149.3 71 170.7 59 192 52.2C213.3 45.3 234.7 43.7 256 38.7C277.3 33.7 298.7 25.3 320 27C341.3 28.7 362.7 40.3 384 49C405.3 57.7 426.7 63.3 448 62.7C469.3 62 490.7 55 512 53.5C533.3 52 554.7 56 576 57.8C597.3 59.7 618.7 59.3 640 56C661.3 52.7 682.7 46.3 704 48.5C725.3 50.7 746.7 61.3 768 60.8C789.3 60.3 810.7 48.7 832 38.7C853.3 28.7 874.7 20.3 896 18.8C917.3 17.3 938.7 22.7 949.3 25.3L960 28L960 301L949.3 301C938.7 301 917.3 301 896 301C874.7 301 853.3 301 832 301C810.7 301 789.3 301 768 301C746.7 301 725.3 301 704 301C682.7 301 661.3 301 640 301C618.7 301 597.3 301 576 301C554.7 301 533.3 301 512 301C490.7 301 469.3 301 448 301C426.7 301 405.3 301 384 301C362.7 301 341.3 301 320 301C298.7 301 277.3 301 256 301C234.7 301 213.3 301 192 301C170.7 301 149.3 301 128 301C106.7 301 85.3 301 64 301C42.7 301 21.3 301 10.7 301L0 301Z" fill="#e9e9e9"></path><path d="M0 80L10.7 76.5C21.3 73 42.7 66 64 61.5C85.3 57 106.7 55 128 56.5C149.3 58 170.7 63 192 67.8C213.3 72.7 234.7 77.3 256 81.8C277.3 86.3 298.7 90.7 320 87.5C341.3 84.3 362.7 73.7 384 69C405.3 64.3 426.7 65.7 448 71.2C469.3 76.7 490.7 86.3 512 85.8C533.3 85.3 554.7 74.7 576 73.2C597.3 71.7 618.7 79.3 640 76C661.3 72.7 682.7 58.3 704 58.2C725.3 58 746.7 72 768 80.2C789.3 88.3 810.7 90.7 832 82.7C853.3 74.7 874.7 56.3 896 47.7C917.3 39 938.7 40 949.3 40.5L960 41L960 301L949.3 301C938.7 301 917.3 301 896 301C874.7 301 853.3 301 832 301C810.7 301 789.3 301 768 301C746.7 301 725.3 301 704 301C682.7 301 661.3 301 640 301C618.7 301 597.3 301 576 301C554.7 301 533.3 301 512 301C490.7 301 469.3 301 448 301C426.7 301 405.3 301 384 301C362.7 301 341.3 301 320 301C298.7 301 277.3 301 256 301C234.7 301 213.3 301 192 301C170.7 301 149.3 301 128 301C106.7 301 85.3 301 64 301C42.7 301 21.3 301 10.7 301L0 301Z" fill="#e3e4e6"></path><path d="M0 88L10.7 91.5C21.3 95 42.7 102 64 101.2C85.3 100.3 106.7 91.7 128 85.7C149.3 79.7 170.7 76.3 192 76.5C213.3 76.7 234.7 80.3 256 86.5C277.3 92.7 298.7 101.3 320 104.7C341.3 108 362.7 106 384 104.5C405.3 103 426.7 102 448 96.5C469.3 91 490.7 81 512 82.2C533.3 83.3 554.7 95.7 576 99.7C597.3 103.7 618.7 99.3 640 91.7C661.3 84 682.7 73 704 70.2C725.3 67.3 746.7 72.7 768 75.3C789.3 78 810.7 78 832 74.5C853.3 71 874.7 64 896 61C917.3 58 938.7 59 949.3 59.5L960 60L960 301L949.3 301C938.7 301 917.3 301 896 301C874.7 301 853.3 301 832 301C810.7 301 789.3 301 768 301C746.7 301 725.3 301 704 301C682.7 301 661.3 301 640 301C618.7 301 597.3 301 576 301C554.7 301 533.3 301 512 301C490.7 301 469.3 301 448 301C426.7 301 405.3 301 384 301C362.7 301 341.3 301 320 301C298.7 301 277.3 301 256 301C234.7 301 213.3 301 192 301C170.7 301 149.3 301 128 301C106.7 301 85.3 301 64 301C42.7 301 21.3 301 10.7 301L0 301Z" fill="#dcdfe4"></path><path d="M0 127L10.7 126C21.3 125 42.7 123 64 124.8C85.3 126.7 106.7 132.3 128 134.2C149.3 136 170.7 134 192 133.3C213.3 132.7 234.7 133.3 256 135C277.3 136.7 298.7 139.3 320 135.7C341.3 132 362.7 122 384 111.2C405.3 100.3 426.7 88.7 448 88.3C469.3 88 490.7 99 512 107.2C533.3 115.3 554.7 120.7 576 115.5C597.3 110.3 618.7 94.7 640 86.8C661.3 79 682.7 79 704 83.7C725.3 88.3 746.7 97.7 768 100.5C789.3 103.3 810.7 99.7 832 95.2C853.3 90.7 874.7 85.3 896 91.8C917.3 98.3 938.7 116.7 949.3 125.8L960 135L960 301L949.3 301C938.7 301 917.3 301 896 301C874.7 301 853.3 301 832 301C810.7 301 789.3 301 768 301C746.7 301 725.3 301 704 301C682.7 301 661.3 301 640 301C618.7 301 597.3 301 576 301C554.7 301 533.3 301 512 301C490.7 301 469.3 301 448 301C426.7 301 405.3 301 384 301C362.7 301 341.3 301 320 301C298.7 301 277.3 301 256 301C234.7 301 213.3 301 192 301C170.7 301 149.3 301 128 301C106.7 301 85.3 301 64 301C42.7 301 21.3 301 10.7 301L0 301Z" fill="#d6dae1"></path><path d="M0 119L10.7 125.2C21.3 131.3 42.7 143.7 64 142.3C85.3 141 106.7 126 128 124C149.3 122 170.7 133 192 131.7C213.3 130.3 234.7 116.7 256 109.5C277.3 102.3 298.7 101.7 320 104.5C341.3 107.3 362.7 113.7 384 121C405.3 128.3 426.7 136.7 448 141.2C469.3 145.7 490.7 146.3 512 145C533.3 143.7 554.7 140.3 576 140.7C597.3 141 618.7 145 640 147.8C661.3 150.7 682.7 152.3 704 147.3C725.3 142.3 746.7 130.7 768 124.8C789.3 119 810.7 119 832 119.2C853.3 119.3 874.7 119.7 896 126.8C917.3 134 938.7 148 949.3 155L960 162L960 301L949.3 301C938.7 301 917.3 301 896 301C874.7 301 853.3 301 832 301C810.7 301 789.3 301 768 301C746.7 301 725.3 301 704 301C682.7 301 661.3 301 640 301C618.7 301 597.3 301 576 301C554.7 301 533.3 301 512 301C490.7 301 469.3 301 448 301C426.7 301 405.3 301 384 301C362.7 301 341.3 301 320 301C298.7 301 277.3 301 256 301C234.7 301 213.3 301 192 301C170.7 301 149.3 301 128 301C106.7 301 85.3 301 64 301C42.7 301 21.3 301 10.7 301L0 301Z" fill="#d0d5df"></path><path d="M0 167L10.7 168.3C21.3 169.7 42.7 172.3 64 168.2C85.3 164 106.7 153 128 153C149.3 153 170.7 164 192 165.7C213.3 167.3 234.7 159.7 256 152.3C277.3 145 298.7 138 320 140.5C341.3 143 362.7 155 384 154.2C405.3 153.3 426.7 139.7 448 133.8C469.3 128 490.7 130 512 130.2C533.3 130.3 554.7 128.7 576 131.8C597.3 135 618.7 143 640 146C661.3 149 682.7 147 704 144.2C725.3 141.3 746.7 137.7 768 138.7C789.3 139.7 810.7 145.3 832 153C853.3 160.7 874.7 170.3 896 166.2C917.3 162 938.7 144 949.3 135L960 126L960 301L949.3 301C938.7 301 917.3 301 896 301C874.7 301 853.3 301 832 301C810.7 301 789.3 301 768 301C746.7 301 725.3 301 704 301C682.7 301 661.3 301 640 301C618.7 301 597.3 301 576 301C554.7 301 533.3 301 512 301C490.7 301 469.3 301 448 301C426.7 301 405.3 301 384 301C362.7 301 341.3 301 320 301C298.7 301 277.3 301 256 301C234.7 301 213.3 301 192 301C170.7 301 149.3 301 128 301C106.7 301 85.3 301 64 301C42.7 301 21.3 301 10.7 301L0 301Z" fill="#c9d0dc"></path><path d="M0 171L10.7 169.3C21.3 167.7 42.7 164.3 64 168C85.3 171.7 106.7 182.3 128 181.7C149.3 181 170.7 169 192 163.2C213.3 157.3 234.7 157.7 256 159.3C277.3 161 298.7 164 320 169.7C341.3 175.3 362.7 183.7 384 183.7C405.3 183.7 426.7 175.3 448 174.5C469.3 173.7 490.7 180.3 512 183C533.3 185.7 554.7 184.3 576 182.3C597.3 180.3 618.7 177.7 640 172.8C661.3 168 682.7 161 704 160.5C725.3 160 746.7 166 768 173C789.3 180 810.7 188 832 191.8C853.3 195.7 874.7 195.3 896 195.8C917.3 196.3 938.7 197.7 949.3 198.3L960 199L960 301L949.3 301C938.7 301 917.3 301 896 301C874.7 301 853.3 301 832 301C810.7 301 789.3 301 768 301C746.7 301 725.3 301 704 301C682.7 301 661.3 301 640 301C618.7 301 597.3 301 576 301C554.7 301 533.3 301 512 301C490.7 301 469.3 301 448 301C426.7 301 405.3 301 384 301C362.7 301 341.3 301 320 301C298.7 301 277.3 301 256 301C234.7 301 213.3 301 192 301C170.7 301 149.3 301 128 301C106.7 301 85.3 301 64 301C42.7 301 21.3 301 10.7 301L0 301Z" fill="#c3cada"></path><path d="M0 208L10.7 204.5C21.3 201 42.7 194 64 191.2C85.3 188.3 106.7 189.7 128 187.8C149.3 186 170.7 181 192 183.2C213.3 185.3 234.7 194.7 256 200.5C277.3 206.3 298.7 208.7 320 210.7C341.3 212.7 362.7 214.3 384 208.5C405.3 202.7 426.7 189.3 448 181.8C469.3 174.3 490.7 172.7 512 177.3C533.3 182 554.7 193 576 200.2C597.3 207.3 618.7 210.7 640 209.3C661.3 208 682.7 202 704 200.2C725.3 198.3 746.7 200.7 768 202.7C789.3 204.7 810.7 206.3 832 207.7C853.3 209 874.7 210 896 208.5C917.3 207 938.7 203 949.3 201L960 199L960 301L949.3 301C938.7 301 917.3 301 896 301C874.7 301 853.3 301 832 301C810.7 301 789.3 301 768 301C746.7 301 725.3 301 704 301C682.7 301 661.3 301 640 301C618.7 301 597.3 301 576 301C554.7 301 533.3 301 512 301C490.7 301 469.3 301 448 301C426.7 301 405.3 301 384 301C362.7 301 341.3 301 320 301C298.7 301 277.3 301 256 301C234.7 301 213.3 301 192 301C170.7 301 149.3 301 128 301C106.7 301 85.3 301 64 301C42.7 301 21.3 301 10.7 301L0 301Z" fill="#bcc6d7"></path><path d="M0 235L10.7 233.7C21.3 232.3 42.7 229.7 64 225.7C85.3 221.7 106.7 216.3 128 212.2C149.3 208 170.7 205 192 208.8C213.3 212.7 234.7 223.3 256 223.8C277.3 224.3 298.7 214.7 320 211.7C341.3 208.7 362.7 212.3 384 213.7C405.3 215 426.7 214 448 216.8C469.3 219.7 490.7 226.3 512 228.2C533.3 230 554.7 227 576 227.5C597.3 228 618.7 232 640 230C661.3 228 682.7 220 704 218.3C725.3 216.7 746.7 221.3 768 218.8C789.3 216.3 810.7 206.7 832 203.8C853.3 201 874.7 205 896 205.7C917.3 206.3 938.7 203.7 949.3 202.3L960 201L960 301L949.3 301C938.7 301 917.3 301 896 301C874.7 301 853.3 301 832 301C810.7 301 789.3 301 768 301C746.7 301 725.3 301 704 301C682.7 301 661.3 301 640 301C618.7 301 597.3 301 576 301C554.7 301 533.3 301 512 301C490.7 301 469.3 301 448 301C426.7 301 405.3 301 384 301C362.7 301 341.3 301 320 301C298.7 301 277.3 301 256 301C234.7 301 213.3 301 192 301C170.7 301 149.3 301 128 301C106.7 301 85.3 301 64 301C42.7 301 21.3 301 10.7 301L0 301Z" fill="#b6c1d4"></path><path d="M0 218L10.7 217.7C21.3 217.3 42.7 216.7 64 219.8C85.3 223 106.7 230 128 234.2C149.3 238.3 170.7 239.7 192 240.8C213.3 242 234.7 243 256 242.8C277.3 242.7 298.7 241.3 320 240.8C341.3 240.3 362.7 240.7 384 240.7C405.3 240.7 426.7 240.3 448 235.8C469.3 231.3 490.7 222.7 512 221.2C533.3 219.7 554.7 225.3 576 228.2C597.3 231 618.7 231 640 234.2C661.3 237.3 682.7 243.7 704 241.2C725.3 238.7 746.7 227.3 768 221.5C789.3 215.7 810.7 215.3 832 214.8C853.3 214.3 874.7 213.7 896 217.3C917.3 221 938.7 229 949.3 233L960 237L960 301L949.3 301C938.7 301 917.3 301 896 301C874.7 301 853.3 301 832 301C810.7 301 789.3 301 768 301C746.7 301 725.3 301 704 301C682.7 301 661.3 301 640 301C618.7 301 597.3 301 576 301C554.7 301 533.3 301 512 301C490.7 301 469.3 301 448 301C426.7 301 405.3 301 384 301C362.7 301 341.3 301 320 301C298.7 301 277.3 301 256 301C234.7 301 213.3 301 192 301C170.7 301 149.3 301 128 301C106.7 301 85.3 301 64 301C42.7 301 21.3 301 10.7 301L0 301Z" fill="#afbcd1"></path><path d="M0 270L10.7 269.2C21.3 268.3 42.7 266.7 64 262.5C85.3 258.3 106.7 251.7 128 251C149.3 250.3 170.7 255.7 192 257C213.3 258.3 234.7 255.7 256 252.2C277.3 248.7 298.7 244.3 320 245.7C341.3 247 362.7 254 384 255.5C405.3 257 426.7 253 448 255.3C469.3 257.7 490.7 266.3 512 265.5C533.3 264.7 554.7 254.3 576 249.7C597.3 245 618.7 246 640 249.5C661.3 253 682.7 259 704 258.8C725.3 258.7 746.7 252.3 768 252C789.3 251.7 810.7 257.3 832 261.5C853.3 265.7 874.7 268.3 896 266.3C917.3 264.3 938.7 257.7 949.3 254.3L960 251L960 301L949.3 301C938.7 301 917.3 301 896 301C874.7 301 853.3 301 832 301C810.7 301 789.3 301 768 301C746.7 301 725.3 301 704 301C682.7 301 661.3 301 640 301C618.7 301 597.3 301 576 301C554.7 301 533.3 301 512 301C490.7 301 469.3 301 448 301C426.7 301 405.3 301 384 301C362.7 301 341.3 301 320 301C298.7 301 277.3 301 256 301C234.7 301 213.3 301 192 301C170.7 301 149.3 301 128 301C106.7 301 85.3 301 64 301C42.7 301 21.3 301 10.7 301L0 301Z" fill="#a9b7cf"></path><path d="M0 294L10.7 290.2C21.3 286.3 42.7 278.7 64 273.2C85.3 267.7 106.7 264.3 128 262.2C149.3 260 170.7 259 192 260.2C213.3 261.3 234.7 264.7 256 267.8C277.3 271 298.7 274 320 277.7C341.3 281.3 362.7 285.7 384 282.8C405.3 280 426.7 270 448 267.7C469.3 265.3 490.7 270.7 512 271.2C533.3 271.7 554.7 267.3 576 268.2C597.3 269 618.7 275 640 279.3C661.3 283.7 682.7 286.3 704 287.7C725.3 289 746.7 289 768 288.7C789.3 288.3 810.7 287.7 832 284.8C853.3 282 874.7 277 896 276.8C917.3 276.7 938.7 281.3 949.3 283.7L960 286L960 301L949.3 301C938.7 301 917.3 301 896 301C874.7 301 853.3 301 832 301C810.7 301 789.3 301 768 301C746.7 301 725.3 301 704 301C682.7 301 661.3 301 640 301C618.7 301 597.3 301 576 301C554.7 301 533.3 301 512 301C490.7 301 469.3 301 448 301C426.7 301 405.3 301 384 301C362.7 301 341.3 301 320 301C298.7 301 277.3 301 256 301C234.7 301 213.3 301 192 301C170.7 301 149.3 301 128 301C106.7 301 85.3 301 64 301C42.7 301 21.3 301 10.7 301L0 301Z" fill="#a2b2cc"></path></svg>