<svg id="visual" viewBox="0 0 960 300" width="960" height="300" xmlns="http://www.w3.org/2000/svg" xmlns:xlink="http://www.w3.org/1999/xlink" version="1.1"><rect x="0" y="0" width="960" height="300" fill="#ffffff"></rect><g fill="none" stroke="#1a1a1a" stroke-width="2"><circle r="36" cx="427" cy="88"></circle><circle r="1" cx="274" cy="118"></circle><circle r="11" cx="268" cy="262"></circle><circle r="12" cx="629" cy="112"></circle><circle r="23" cx="186" cy="188"></circle><circle r="20" cx="775" cy="144"></circle><circle r="18" cx="886" cy="105"></circle><circle r="24" cx="534" cy="158"></circle><circle r="6" cx="805" cy="60"></circle><circle r="15" cx="449" cy="176"></circle><circle r="17" cx="725" cy="41"></circle><circle r="29" cx="361" cy="208"></circle><circle r="22" cx="744" cy="231"></circle><circle r="1" cx="58" cy="45"></circle><circle r="29" cx="629" cy="260"></circle><circle r="29" cx="57" cy="202"></circle><circle r="34" cx="154" cy="55"></circle><circle r="15" cx="73" cy="125"></circle><circle r="2" cx="508" cy="43"></circle><circle r="25" cx="899" cy="191"></circle></g></svg>