<svg id="visual" viewBox="0 0 960 300" width="960" height="300" xmlns="http://www.w3.org/2000/svg" xmlns:xlink="http://www.w3.org/1999/xlink" version="1.1"><rect x="0" y="0" width="960" height="300" fill="#b07b7b"></rect><path d="M0 172L22.8 175.3C45.7 178.7 91.3 185.3 137 198.7C182.7 212 228.3 232 274 237.7C319.7 243.3 365.3 234.7 411.2 222C457 209.3 503 192.7 548.8 171.2C594.7 149.7 640.3 123.3 686 136C731.7 148.7 777.3 200.3 823 221.2C868.7 242 914.3 232 937.2 227L960 222L960 0L937.2 0C914.3 0 868.7 0 823 0C777.3 0 731.7 0 686 0C640.3 0 594.7 0 548.8 0C503 0 457 0 411.2 0C365.3 0 319.7 0 274 0C228.3 0 182.7 0 137 0C91.3 0 45.7 0 22.8 0L0 0Z" fill="#db9a9a"></path><path d="M0 197L22.8 183.2C45.7 169.3 91.3 141.7 137 145.7C182.7 149.7 228.3 185.3 274 187.7C319.7 190 365.3 159 411.2 141.5C457 124 503 120 548.8 127C594.7 134 640.3 152 686 156.2C731.7 160.3 777.3 150.7 823 146.5C868.7 142.3 914.3 143.7 937.2 144.3L960 145L960 0L937.2 0C914.3 0 868.7 0 823 0C777.3 0 731.7 0 686 0C640.3 0 594.7 0 548.8 0C503 0 457 0 411.2 0C365.3 0 319.7 0 274 0C228.3 0 182.7 0 137 0C91.3 0 45.7 0 22.8 0L0 0Z" fill="#7e5656"></path><path d="M0 88L22.8 81.5C45.7 75 91.3 62 137 62.8C182.7 63.7 228.3 78.3 274 95.5C319.7 112.7 365.3 132.3 411.2 137.5C457 142.7 503 133.3 548.8 128.7C594.7 124 640.3 124 686 124.8C731.7 125.7 777.3 127.3 823 124.5C868.7 121.7 914.3 114.3 937.2 110.7L960 107L960 0L937.2 0C914.3 0 868.7 0 823 0C777.3 0 731.7 0 686 0C640.3 0 594.7 0 548.8 0C503 0 457 0 411.2 0C365.3 0 319.7 0 274 0C228.3 0 182.7 0 137 0C91.3 0 45.7 0 22.8 0L0 0Z" fill="#4b3131"></path><path d="M0 53L22.8 51.3C45.7 49.7 91.3 46.3 137 53.8C182.7 61.3 228.3 79.7 274 87.5C319.7 95.3 365.3 92.7 411.2 87.8C457 83 503 76 548.8 76.2C594.7 76.3 640.3 83.7 686 81.7C731.7 79.7 777.3 68.3 823 57.3C868.7 46.3 914.3 35.7 937.2 30.3L960 25L960 0L937.2 0C914.3 0 868.7 0 823 0C777.3 0 731.7 0 686 0C640.3 0 594.7 0 548.8 0C503 0 457 0 411.2 0C365.3 0 319.7 0 274 0C228.3 0 182.7 0 137 0C91.3 0 45.7 0 22.8 0L0 0Z" fill="#7e5656"></path><path d="M0 58L22.8 49.3C45.7 40.7 91.3 23.3 137 14.2C182.7 5 228.3 4 274 13.2C319.7 22.3 365.3 41.7 411.2 52C457 62.3 503 63.7 548.8 60C594.7 56.3 640.3 47.7 686 43.8C731.7 40 777.3 41 823 40.5C868.7 40 914.3 38 937.2 37L960 36L960 0L937.2 0C914.3 0 868.7 0 823 0C777.3 0 731.7 0 686 0C640.3 0 594.7 0 548.8 0C503 0 457 0 411.2 0C365.3 0 319.7 0 274 0C228.3 0 182.7 0 137 0C91.3 0 45.7 0 22.8 0L0 0Z" fill="#db9a9a"></path></svg>