<svg id="visual" viewBox="0 0 960 300" width="960" height="300" xmlns="http://www.w3.org/2000/svg" xmlns:xlink="http://www.w3.org/1999/xlink" version="1.1"><rect x="0" y="0" width="960" height="300" fill="#ffffff"></rect><path d="M0 183L26.7 175.2C53.3 167.3 106.7 151.7 160 144.8C213.3 138 266.7 140 320 150.7C373.3 161.3 426.7 180.7 480 181.3C533.3 182 586.7 164 640 141.8C693.3 119.7 746.7 93.3 800 92C853.3 90.7 906.7 114.3 933.3 126.2L960 138L960 301L933.3 301C906.7 301 853.3 301 800 301C746.7 301 693.3 301 640 301C586.7 301 533.3 301 480 301C426.7 301 373.3 301 320 301C266.7 301 213.3 301 160 301C106.7 301 53.3 301 26.7 301L0 301Z" fill="#ffffff"></path><path d="M0 81L26.7 82.8C53.3 84.7 106.7 88.3 160 108.2C213.3 128 266.7 164 320 183.8C373.3 203.7 426.7 207.3 480 194.7C533.3 182 586.7 153 640 149.5C693.3 146 746.7 168 800 178.7C853.3 189.3 906.7 188.7 933.3 188.3L960 188L960 301L933.3 301C906.7 301 853.3 301 800 301C746.7 301 693.3 301 640 301C586.7 301 533.3 301 480 301C426.7 301 373.3 301 320 301C266.7 301 213.3 301 160 301C106.7 301 53.3 301 26.7 301L0 301Z" fill="#b8b8b8"></path><path d="M0 107L26.7 127.8C53.3 148.7 106.7 190.3 160 207.5C213.3 224.7 266.7 217.3 320 214.5C373.3 211.7 426.7 213.3 480 196.2C533.3 179 586.7 143 640 128.5C693.3 114 746.7 121 800 121.3C853.3 121.7 906.7 115.3 933.3 112.2L960 109L960 301L933.3 301C906.7 301 853.3 301 800 301C746.7 301 693.3 301 640 301C586.7 301 533.3 301 480 301C426.7 301 373.3 301 320 301C266.7 301 213.3 301 160 301C106.7 301 53.3 301 26.7 301L0 301Z" fill="#767676"></path><path d="M0 160L26.7 162.3C53.3 164.7 106.7 169.3 160 182.8C213.3 196.3 266.7 218.7 320 227.5C373.3 236.3 426.7 231.7 480 225.8C533.3 220 586.7 213 640 210.8C693.3 208.7 746.7 211.3 800 207.3C853.3 203.3 906.7 192.7 933.3 187.3L960 182L960 301L933.3 301C906.7 301 853.3 301 800 301C746.7 301 693.3 301 640 301C586.7 301 533.3 301 480 301C426.7 301 373.3 301 320 301C266.7 301 213.3 301 160 301C106.7 301 53.3 301 26.7 301L0 301Z" fill="#3a3a3a"></path><path d="M0 165L26.7 177.2C53.3 189.3 106.7 213.7 160 215.3C213.3 217 266.7 196 320 186.8C373.3 177.7 426.7 180.3 480 176.3C533.3 172.3 586.7 161.7 640 156.3C693.3 151 746.7 151 800 161.7C853.3 172.3 906.7 193.7 933.3 204.3L960 215L960 301L933.3 301C906.7 301 853.3 301 800 301C746.7 301 693.3 301 640 301C586.7 301 533.3 301 480 301C426.7 301 373.3 301 320 301C266.7 301 213.3 301 160 301C106.7 301 53.3 301 26.7 301L0 301Z" fill="#1a1a1a"></path><path d="M0 260L26.7 260.8C53.3 261.7 106.7 263.3 160 261.2C213.3 259 266.7 253 320 239.5C373.3 226 426.7 205 480 202.8C533.3 200.7 586.7 217.3 640 221.8C693.3 226.3 746.7 218.7 800 218.2C853.3 217.7 906.7 224.3 933.3 227.7L960 231L960 301L933.3 301C906.7 301 853.3 301 800 301C746.7 301 693.3 301 640 301C586.7 301 533.3 301 480 301C426.7 301 373.3 301 320 301C266.7 301 213.3 301 160 301C106.7 301 53.3 301 26.7 301L0 301Z" fill="#1a1a1a"></path><path d="M0 236L26.7 236.3C53.3 236.7 106.7 237.3 160 240.8C213.3 244.3 266.7 250.7 320 248.3C373.3 246 426.7 235 480 233.3C533.3 231.7 586.7 239.3 640 241.5C693.3 243.7 746.7 240.3 800 230.5C853.3 220.7 906.7 204.3 933.3 196.2L960 188L960 301L933.3 301C906.7 301 853.3 301 800 301C746.7 301 693.3 301 640 301C586.7 301 533.3 301 480 301C426.7 301 373.3 301 320 301C266.7 301 213.3 301 160 301C106.7 301 53.3 301 26.7 301L0 301Z" fill="#3a3a3a"></path><path d="M0 224L26.7 228.3C53.3 232.7 106.7 241.3 160 250.3C213.3 259.3 266.7 268.7 320 265.5C373.3 262.3 426.7 246.7 480 236.2C533.3 225.7 586.7 220.3 640 223.2C693.3 226 746.7 237 800 245.7C853.3 254.3 906.7 260.7 933.3 263.8L960 267L960 301L933.3 301C906.7 301 853.3 301 800 301C746.7 301 693.3 301 640 301C586.7 301 533.3 301 480 301C426.7 301 373.3 301 320 301C266.7 301 213.3 301 160 301C106.7 301 53.3 301 26.7 301L0 301Z" fill="#767676"></path><path d="M0 233L26.7 238.3C53.3 243.7 106.7 254.3 160 262.7C213.3 271 266.7 277 320 273.2C373.3 269.3 426.7 255.7 480 253.5C533.3 251.3 586.7 260.7 640 267.7C693.3 274.7 746.7 279.3 800 273.8C853.3 268.3 906.7 252.7 933.3 244.8L960 237L960 301L933.3 301C906.7 301 853.3 301 800 301C746.7 301 693.3 301 640 301C586.7 301 533.3 301 480 301C426.7 301 373.3 301 320 301C266.7 301 213.3 301 160 301C106.7 301 53.3 301 26.7 301L0 301Z" fill="#b8b8b8"></path><path d="M0 267L26.7 265.5C53.3 264 106.7 261 160 264.7C213.3 268.3 266.7 278.7 320 280C373.3 281.3 426.7 273.7 480 269.8C533.3 266 586.7 266 640 267.8C693.3 269.7 746.7 273.3 800 272C853.3 270.7 906.7 264.3 933.3 261.2L960 258L960 301L933.3 301C906.7 301 853.3 301 800 301C746.7 301 693.3 301 640 301C586.7 301 533.3 301 480 301C426.7 301 373.3 301 320 301C266.7 301 213.3 301 160 301C106.7 301 53.3 301 26.7 301L0 301Z" fill="#ffffff"></path></svg>