<svg id="visual" viewBox="0 0 960 300" width="960" height="300" xmlns="http://www.w3.org/2000/svg" xmlns:xlink="http://www.w3.org/1999/xlink" version="1.1"><rect x="0" y="0" width="960" height="300" fill="#b07b7b"></rect><path d="M0 146L14.5 144.2C29 142.3 58 138.7 87.2 133.3C116.3 128 145.7 121 174.8 131.3C204 141.7 233 169.3 262 185.7C291 202 320 207 349 203.5C378 200 407 188 436.2 174C465.3 160 494.7 144 523.8 149C553 154 582 180 611 179.3C640 178.7 669 151.3 698 138.8C727 126.3 756 128.7 785.2 141.5C814.3 154.3 843.7 177.7 872.8 174.2C902 170.7 931 140.3 945.5 125.2L960 110L960 0L945.5 0C931 0 902 0 872.8 0C843.7 0 814.3 0 785.2 0C756 0 727 0 698 0C669 0 640 0 611 0C582 0 553 0 523.8 0C494.7 0 465.3 0 436.2 0C407 0 378 0 349 0C320 0 291 0 262 0C233 0 204 0 174.8 0C145.7 0 116.3 0 87.2 0C58 0 29 0 14.5 0L0 0Z" fill="#db9a9a"></path><path d="M0 133L14.5 130.7C29 128.3 58 123.7 87.2 130.2C116.3 136.7 145.7 154.3 174.8 165C204 175.7 233 179.3 262 172C291 164.7 320 146.3 349 131.5C378 116.7 407 105.3 436.2 114C465.3 122.7 494.7 151.3 523.8 158.2C553 165 582 150 611 140.3C640 130.7 669 126.3 698 130.3C727 134.3 756 146.7 785.2 150.7C814.3 154.7 843.7 150.3 872.8 145.5C902 140.7 931 135.3 945.5 132.7L960 130L960 0L945.5 0C931 0 902 0 872.8 0C843.7 0 814.3 0 785.2 0C756 0 727 0 698 0C669 0 640 0 611 0C582 0 553 0 523.8 0C494.7 0 465.3 0 436.2 0C407 0 378 0 349 0C320 0 291 0 262 0C233 0 204 0 174.8 0C145.7 0 116.3 0 87.2 0C58 0 29 0 14.5 0L0 0Z" fill="#efcccb"></path><path d="M0 100L14.5 97.7C29 95.3 58 90.7 87.2 95.7C116.3 100.7 145.7 115.3 174.8 118.7C204 122 233 114 262 105.3C291 96.7 320 87.3 349 84C378 80.7 407 83.3 436.2 88C465.3 92.7 494.7 99.3 523.8 102C553 104.7 582 103.3 611 100.5C640 97.7 669 93.3 698 94.5C727 95.7 756 102.3 785.2 112.8C814.3 123.3 843.7 137.7 872.8 134.8C902 132 931 112 945.5 102L960 92L960 0L945.5 0C931 0 902 0 872.8 0C843.7 0 814.3 0 785.2 0C756 0 727 0 698 0C669 0 640 0 611 0C582 0 553 0 523.8 0C494.7 0 465.3 0 436.2 0C407 0 378 0 349 0C320 0 291 0 262 0C233 0 204 0 174.8 0C145.7 0 116.3 0 87.2 0C58 0 29 0 14.5 0L0 0Z" fill="#ffffff"></path><path d="M0 59L14.5 59.2C29 59.3 58 59.7 87.2 58.7C116.3 57.7 145.7 55.3 174.8 56.8C204 58.3 233 63.7 262 67.2C291 70.7 320 72.3 349 69.2C378 66 407 58 436.2 56.2C465.3 54.3 494.7 58.7 523.8 64C553 69.3 582 75.7 611 81.3C640 87 669 92 698 89.7C727 87.3 756 77.7 785.2 74C814.3 70.3 843.7 72.7 872.8 78.3C902 84 931 93 945.5 97.5L960 102L960 0L945.5 0C931 0 902 0 872.8 0C843.7 0 814.3 0 785.2 0C756 0 727 0 698 0C669 0 640 0 611 0C582 0 553 0 523.8 0C494.7 0 465.3 0 436.2 0C407 0 378 0 349 0C320 0 291 0 262 0C233 0 204 0 174.8 0C145.7 0 116.3 0 87.2 0C58 0 29 0 14.5 0L0 0Z" fill="#ffffff"></path><path d="M0 49L14.5 52.5C29 56 58 63 87.2 64.8C116.3 66.7 145.7 63.3 174.8 65C204 66.7 233 73.3 262 71.3C291 69.3 320 58.7 349 54C378 49.3 407 50.7 436.2 49.8C465.3 49 494.7 46 523.8 43.5C553 41 582 39 611 43.8C640 48.7 669 60.3 698 68.3C727 76.3 756 80.7 785.2 78.3C814.3 76 843.7 67 872.8 60.2C902 53.3 931 48.7 945.5 46.3L960 44L960 0L945.5 0C931 0 902 0 872.8 0C843.7 0 814.3 0 785.2 0C756 0 727 0 698 0C669 0 640 0 611 0C582 0 553 0 523.8 0C494.7 0 465.3 0 436.2 0C407 0 378 0 349 0C320 0 291 0 262 0C233 0 204 0 174.8 0C145.7 0 116.3 0 87.2 0C58 0 29 0 14.5 0L0 0Z" fill="#efcccb"></path><path d="M0 15L14.5 21.3C29 27.7 58 40.3 87.2 44C116.3 47.7 145.7 42.3 174.8 39.8C204 37.3 233 37.7 262 38.2C291 38.7 320 39.3 349 36.3C378 33.3 407 26.7 436.2 22.3C465.3 18 494.7 16 523.8 20.7C553 25.3 582 36.7 611 41.8C640 47 669 46 698 44.8C727 43.7 756 42.3 785.2 38.7C814.3 35 843.7 29 872.8 23.8C902 18.7 931 14.3 945.5 12.2L960 10L960 0L945.5 0C931 0 902 0 872.8 0C843.7 0 814.3 0 785.2 0C756 0 727 0 698 0C669 0 640 0 611 0C582 0 553 0 523.8 0C494.7 0 465.3 0 436.2 0C407 0 378 0 349 0C320 0 291 0 262 0C233 0 204 0 174.8 0C145.7 0 116.3 0 87.2 0C58 0 29 0 14.5 0L0 0Z" fill="#db9a9a"></path></svg>