<svg id="visual" viewBox="0 0 960 300" width="960" height="300" xmlns="http://www.w3.org/2000/svg" xmlns:xlink="http://www.w3.org/1999/xlink" version="1.1"><rect x="0" y="0" width="960" height="300" fill="#e9e9e9"></rect><path d="M0 127L16 119.8C32 112.7 64 98.3 96 97C128 95.7 160 107.3 192 112.8C224 118.3 256 117.7 288 113C320 108.3 352 99.7 384 91.2C416 82.7 448 74.3 480 76.2C512 78 544 90 576 93.5C608 97 640 92 672 91C704 90 736 93 768 97.8C800 102.7 832 109.3 864 108.5C896 107.7 928 99.3 944 95.2L960 91L960 301L944 301C928 301 896 301 864 301C832 301 800 301 768 301C736 301 704 301 672 301C640 301 608 301 576 301C544 301 512 301 480 301C448 301 416 301 384 301C352 301 320 301 288 301C256 301 224 301 192 301C160 301 128 301 96 301C64 301 32 301 16 301L0 301Z" fill="#e9e9e9"></path><path d="M0 143L16 144.2C32 145.3 64 147.7 96 144.5C128 141.3 160 132.7 192 132C224 131.3 256 138.7 288 136.5C320 134.3 352 122.7 384 118.2C416 113.7 448 116.3 480 121.3C512 126.3 544 133.7 576 138.3C608 143 640 145 672 144.3C704 143.7 736 140.3 768 138.7C800 137 832 137 864 135.2C896 133.3 928 129.7 944 127.8L960 126L960 301L944 301C928 301 896 301 864 301C832 301 800 301 768 301C736 301 704 301 672 301C640 301 608 301 576 301C544 301 512 301 480 301C448 301 416 301 384 301C352 301 320 301 288 301C256 301 224 301 192 301C160 301 128 301 96 301C64 301 32 301 16 301L0 301Z" fill="#8b8b8b"></path><path d="M0 154L16 153.7C32 153.3 64 152.7 96 154.2C128 155.7 160 159.3 192 154.5C224 149.7 256 136.3 288 137.2C320 138 352 153 384 155.3C416 157.7 448 147.3 480 145.3C512 143.3 544 149.7 576 153.2C608 156.7 640 157.3 672 159.3C704 161.3 736 164.7 768 167.3C800 170 832 172 864 169.3C896 166.7 928 159.3 944 155.7L960 152L960 301L944 301C928 301 896 301 864 301C832 301 800 301 768 301C736 301 704 301 672 301C640 301 608 301 576 301C544 301 512 301 480 301C448 301 416 301 384 301C352 301 320 301 288 301C256 301 224 301 192 301C160 301 128 301 96 301C64 301 32 301 16 301L0 301Z" fill="#373737"></path><path d="M0 173L16 170.2C32 167.3 64 161.7 96 159.3C128 157 160 158 192 163.3C224 168.7 256 178.3 288 182.2C320 186 352 184 384 181.7C416 179.3 448 176.7 480 175.2C512 173.7 544 173.3 576 173.2C608 173 640 173 672 169.5C704 166 736 159 768 163.7C800 168.3 832 184.7 864 184.7C896 184.7 928 168.3 944 160.2L960 152L960 301L944 301C928 301 896 301 864 301C832 301 800 301 768 301C736 301 704 301 672 301C640 301 608 301 576 301C544 301 512 301 480 301C448 301 416 301 384 301C352 301 320 301 288 301C256 301 224 301 192 301C160 301 128 301 96 301C64 301 32 301 16 301L0 301Z" fill="#1a1a1a"></path><path d="M0 227L16 225.5C32 224 64 221 96 216.5C128 212 160 206 192 204.2C224 202.3 256 204.7 288 207.3C320 210 352 213 384 214.3C416 215.7 448 215.3 480 214.3C512 213.3 544 211.7 576 207.7C608 203.7 640 197.3 672 194C704 190.7 736 190.3 768 189.3C800 188.3 832 186.7 864 191.2C896 195.7 928 206.3 944 211.7L960 217L960 301L944 301C928 301 896 301 864 301C832 301 800 301 768 301C736 301 704 301 672 301C640 301 608 301 576 301C544 301 512 301 480 301C448 301 416 301 384 301C352 301 320 301 288 301C256 301 224 301 192 301C160 301 128 301 96 301C64 301 32 301 16 301L0 301Z" fill="#373737"></path><path d="M0 250L16 245.5C32 241 64 232 96 227C128 222 160 221 192 220C224 219 256 218 288 220.2C320 222.3 352 227.7 384 230.5C416 233.3 448 233.7 480 234.8C512 236 544 238 576 237.5C608 237 640 234 672 232.7C704 231.3 736 231.7 768 233.8C800 236 832 240 864 243C896 246 928 248 944 249L960 250L960 301L944 301C928 301 896 301 864 301C832 301 800 301 768 301C736 301 704 301 672 301C640 301 608 301 576 301C544 301 512 301 480 301C448 301 416 301 384 301C352 301 320 301 288 301C256 301 224 301 192 301C160 301 128 301 96 301C64 301 32 301 16 301L0 301Z" fill="#8b8b8b"></path><path d="M0 260L16 261C32 262 64 264 96 263.7C128 263.3 160 260.7 192 259.3C224 258 256 258 288 260.5C320 263 352 268 384 270.2C416 272.3 448 271.7 480 268.8C512 266 544 261 576 258.2C608 255.3 640 254.7 672 255.3C704 256 736 258 768 259C800 260 832 260 864 258.5C896 257 928 254 944 252.5L960 251L960 301L944 301C928 301 896 301 864 301C832 301 800 301 768 301C736 301 704 301 672 301C640 301 608 301 576 301C544 301 512 301 480 301C448 301 416 301 384 301C352 301 320 301 288 301C256 301 224 301 192 301C160 301 128 301 96 301C64 301 32 301 16 301L0 301Z" fill="#e9e9e9"></path></svg>