<svg id="visual" viewBox="0 0 960 300" width="960" height="300" xmlns="http://www.w3.org/2000/svg" xmlns:xlink="http://www.w3.org/1999/xlink" version="1.1"><rect x="0" y="0" width="960" height="300" fill="#e9e9e9"></rect><path d="M0 77L14.5 80.3C29 83.7 58 90.3 87.2 89.8C116.3 89.3 145.7 81.7 174.8 74C204 66.3 233 58.7 262 61.8C291 65 320 79 349 93.8C378 108.7 407 124.3 436.2 127.5C465.3 130.7 494.7 121.3 523.8 110.8C553 100.3 582 88.7 611 86.3C640 84 669 91 698 91.8C727 92.7 756 87.3 785.2 81.8C814.3 76.3 843.7 70.7 872.8 70C902 69.3 931 73.7 945.5 75.8L960 78L960 301L945.5 301C931 301 902 301 872.8 301C843.7 301 814.3 301 785.2 301C756 301 727 301 698 301C669 301 640 301 611 301C582 301 553 301 523.8 301C494.7 301 465.3 301 436.2 301C407 301 378 301 349 301C320 301 291 301 262 301C233 301 204 301 174.8 301C145.7 301 116.3 301 87.2 301C58 301 29 301 14.5 301L0 301Z" fill="#e9e9e9"></path><path d="M0 88L14.5 90.2C29 92.3 58 96.7 87.2 102C116.3 107.3 145.7 113.7 174.8 118.3C204 123 233 126 262 132.2C291 138.3 320 147.7 349 148.3C378 149 407 141 436.2 133.3C465.3 125.7 494.7 118.3 523.8 120C553 121.7 582 132.3 611 128C640 123.7 669 104.3 698 104.2C727 104 756 123 785.2 132.7C814.3 142.3 843.7 142.7 872.8 130.3C902 118 931 93 945.5 80.5L960 68L960 301L945.5 301C931 301 902 301 872.8 301C843.7 301 814.3 301 785.2 301C756 301 727 301 698 301C669 301 640 301 611 301C582 301 553 301 523.8 301C494.7 301 465.3 301 436.2 301C407 301 378 301 349 301C320 301 291 301 262 301C233 301 204 301 174.8 301C145.7 301 116.3 301 87.2 301C58 301 29 301 14.5 301L0 301Z" fill="#d9dce3"></path><path d="M0 119L14.5 124.7C29 130.3 58 141.7 87.2 139.8C116.3 138 145.7 123 174.8 126.2C204 129.3 233 150.7 262 157.3C291 164 320 156 349 154.5C378 153 407 158 436.2 153C465.3 148 494.7 133 523.8 132.3C553 131.7 582 145.3 611 144.5C640 143.7 669 128.3 698 123.3C727 118.3 756 123.7 785.2 128.5C814.3 133.3 843.7 137.7 872.8 135.3C902 133 931 124 945.5 119.5L960 115L960 301L945.5 301C931 301 902 301 872.8 301C843.7 301 814.3 301 785.2 301C756 301 727 301 698 301C669 301 640 301 611 301C582 301 553 301 523.8 301C494.7 301 465.3 301 436.2 301C407 301 378 301 349 301C320 301 291 301 262 301C233 301 204 301 174.8 301C145.7 301 116.3 301 87.2 301C58 301 29 301 14.5 301L0 301Z" fill="#c9d0dc"></path><path d="M0 126L14.5 124.5C29 123 58 120 87.2 127.5C116.3 135 145.7 153 174.8 152.2C204 151.3 233 131.7 262 122.3C291 113 320 114 349 118.2C378 122.3 407 129.7 436.2 132.7C465.3 135.7 494.7 134.3 523.8 137.8C553 141.3 582 149.7 611 151.3C640 153 669 148 698 149.3C727 150.7 756 158.3 785.2 160.8C814.3 163.3 843.7 160.7 872.8 161.8C902 163 931 168 945.5 170.5L960 173L960 301L945.5 301C931 301 902 301 872.8 301C843.7 301 814.3 301 785.2 301C756 301 727 301 698 301C669 301 640 301 611 301C582 301 553 301 523.8 301C494.7 301 465.3 301 436.2 301C407 301 378 301 349 301C320 301 291 301 262 301C233 301 204 301 174.8 301C145.7 301 116.3 301 87.2 301C58 301 29 301 14.5 301L0 301Z" fill="#b9c3d6"></path><path d="M0 153L14.5 160.3C29 167.7 58 182.3 87.2 186.5C116.3 190.7 145.7 184.3 174.8 176.3C204 168.3 233 158.7 262 159C291 159.3 320 169.7 349 168.2C378 166.7 407 153.3 436.2 151.2C465.3 149 494.7 158 523.8 163.5C553 169 582 171 611 172.7C640 174.3 669 175.7 698 175.7C727 175.7 756 174.3 785.2 173.8C814.3 173.3 843.7 173.7 872.8 169.7C902 165.7 931 157.3 945.5 153.2L960 149L960 301L945.5 301C931 301 902 301 872.8 301C843.7 301 814.3 301 785.2 301C756 301 727 301 698 301C669 301 640 301 611 301C582 301 553 301 523.8 301C494.7 301 465.3 301 436.2 301C407 301 378 301 349 301C320 301 291 301 262 301C233 301 204 301 174.8 301C145.7 301 116.3 301 87.2 301C58 301 29 301 14.5 301L0 301Z" fill="#a9b7cf"></path><path d="M0 187L14.5 189.7C29 192.3 58 197.7 87.2 194C116.3 190.3 145.7 177.7 174.8 169.7C204 161.7 233 158.3 262 156.3C291 154.3 320 153.7 349 160.3C378 167 407 181 436.2 186.3C465.3 191.7 494.7 188.3 523.8 183.2C553 178 582 171 611 169.3C640 167.7 669 171.3 698 170.2C727 169 756 163 785.2 168.5C814.3 174 843.7 191 872.8 192.5C902 194 931 180 945.5 173L960 166L960 301L945.5 301C931 301 902 301 872.8 301C843.7 301 814.3 301 785.2 301C756 301 727 301 698 301C669 301 640 301 611 301C582 301 553 301 523.8 301C494.7 301 465.3 301 436.2 301C407 301 378 301 349 301C320 301 291 301 262 301C233 301 204 301 174.8 301C145.7 301 116.3 301 87.2 301C58 301 29 301 14.5 301L0 301Z" fill="#a2b2cc"></path><path d="M0 208L14.5 208.5C29 209 58 210 87.2 208.2C116.3 206.3 145.7 201.7 174.8 200.2C204 198.7 233 200.3 262 202.7C291 205 320 208 349 208.3C378 208.7 407 206.3 436.2 199C465.3 191.7 494.7 179.3 523.8 179.7C553 180 582 193 611 195.8C640 198.7 669 191.3 698 191.3C727 191.3 756 198.7 785.2 199C814.3 199.3 843.7 192.7 872.8 187.5C902 182.3 931 178.7 945.5 176.8L960 175L960 301L945.5 301C931 301 902 301 872.8 301C843.7 301 814.3 301 785.2 301C756 301 727 301 698 301C669 301 640 301 611 301C582 301 553 301 523.8 301C494.7 301 465.3 301 436.2 301C407 301 378 301 349 301C320 301 291 301 262 301C233 301 204 301 174.8 301C145.7 301 116.3 301 87.2 301C58 301 29 301 14.5 301L0 301Z" fill="#a2b2cc"></path><path d="M0 205L14.5 206.7C29 208.3 58 211.7 87.2 216.5C116.3 221.3 145.7 227.7 174.8 225C204 222.3 233 210.7 262 207.7C291 204.7 320 210.3 349 215.3C378 220.3 407 224.7 436.2 223.8C465.3 223 494.7 217 523.8 210.2C553 203.3 582 195.7 611 195.2C640 194.7 669 201.3 698 205.7C727 210 756 212 785.2 216.2C814.3 220.3 843.7 226.7 872.8 229.7C902 232.7 931 232.3 945.5 232.2L960 232L960 301L945.5 301C931 301 902 301 872.8 301C843.7 301 814.3 301 785.2 301C756 301 727 301 698 301C669 301 640 301 611 301C582 301 553 301 523.8 301C494.7 301 465.3 301 436.2 301C407 301 378 301 349 301C320 301 291 301 262 301C233 301 204 301 174.8 301C145.7 301 116.3 301 87.2 301C58 301 29 301 14.5 301L0 301Z" fill="#a9b7cf"></path><path d="M0 234L14.5 232.8C29 231.7 58 229.3 87.2 230C116.3 230.7 145.7 234.3 174.8 236.5C204 238.7 233 239.3 262 240.8C291 242.3 320 244.7 349 243.7C378 242.7 407 238.3 436.2 238.5C465.3 238.7 494.7 243.3 523.8 240.2C553 237 582 226 611 226.2C640 226.3 669 237.7 698 241.7C727 245.7 756 242.3 785.2 240.5C814.3 238.7 843.7 238.3 872.8 236.5C902 234.7 931 231.3 945.5 229.7L960 228L960 301L945.5 301C931 301 902 301 872.8 301C843.7 301 814.3 301 785.2 301C756 301 727 301 698 301C669 301 640 301 611 301C582 301 553 301 523.8 301C494.7 301 465.3 301 436.2 301C407 301 378 301 349 301C320 301 291 301 262 301C233 301 204 301 174.8 301C145.7 301 116.3 301 87.2 301C58 301 29 301 14.5 301L0 301Z" fill="#b9c3d6"></path><path d="M0 249L14.5 248.7C29 248.3 58 247.7 87.2 247.3C116.3 247 145.7 247 174.8 249.2C204 251.3 233 255.7 262 255.5C291 255.3 320 250.7 349 248.5C378 246.3 407 246.7 436.2 245.7C465.3 244.7 494.7 242.3 523.8 241.3C553 240.3 582 240.7 611 243.3C640 246 669 251 698 252.8C727 254.7 756 253.3 785.2 253C814.3 252.7 843.7 253.3 872.8 252C902 250.7 931 247.3 945.5 245.7L960 244L960 301L945.5 301C931 301 902 301 872.8 301C843.7 301 814.3 301 785.2 301C756 301 727 301 698 301C669 301 640 301 611 301C582 301 553 301 523.8 301C494.7 301 465.3 301 436.2 301C407 301 378 301 349 301C320 301 291 301 262 301C233 301 204 301 174.8 301C145.7 301 116.3 301 87.2 301C58 301 29 301 14.5 301L0 301Z" fill="#c9d0dc"></path><path d="M0 274L14.5 271C29 268 58 262 87.2 261.2C116.3 260.3 145.7 264.7 174.8 263.5C204 262.3 233 255.7 262 252.7C291 249.7 320 250.3 349 250.8C378 251.3 407 251.7 436.2 253.2C465.3 254.7 494.7 257.3 523.8 259.7C553 262 582 264 611 263C640 262 669 258 698 254.8C727 251.7 756 249.3 785.2 251.8C814.3 254.3 843.7 261.7 872.8 266.3C902 271 931 273 945.5 274L960 275L960 301L945.5 301C931 301 902 301 872.8 301C843.7 301 814.3 301 785.2 301C756 301 727 301 698 301C669 301 640 301 611 301C582 301 553 301 523.8 301C494.7 301 465.3 301 436.2 301C407 301 378 301 349 301C320 301 291 301 262 301C233 301 204 301 174.8 301C145.7 301 116.3 301 87.2 301C58 301 29 301 14.5 301L0 301Z" fill="#d9dce3"></path><path d="M0 278L14.5 279C29 280 58 282 87.2 280.5C116.3 279 145.7 274 174.8 272.2C204 270.3 233 271.7 262 273.8C291 276 320 279 349 278.3C378 277.7 407 273.3 436.2 274C465.3 274.7 494.7 280.3 523.8 282.7C553 285 582 284 611 281.8C640 279.7 669 276.3 698 274.5C727 272.7 756 272.3 785.2 274.5C814.3 276.7 843.7 281.3 872.8 280.7C902 280 931 274 945.5 271L960 268L960 301L945.5 301C931 301 902 301 872.8 301C843.7 301 814.3 301 785.2 301C756 301 727 301 698 301C669 301 640 301 611 301C582 301 553 301 523.8 301C494.7 301 465.3 301 436.2 301C407 301 378 301 349 301C320 301 291 301 262 301C233 301 204 301 174.8 301C145.7 301 116.3 301 87.2 301C58 301 29 301 14.5 301L0 301Z" fill="#e9e9e9"></path></svg>