<svg id="visual" viewBox="0 0 960 300" width="960" height="300" xmlns="http://www.w3.org/2000/svg" xmlns:xlink="http://www.w3.org/1999/xlink" version="1.1"><rect x="0" y="0" width="960" height="300" fill="#3e3339"></rect><path d="M0 220L40 208.7C80 197.3 160 174.7 240 176.2C320 177.7 400 203.3 480 208.3C560 213.3 640 197.7 720 191.8C800 186 880 190 920 192L960 194L960 0L920 0C880 0 800 0 720 0C640 0 560 0 480 0C400 0 320 0 240 0C160 0 80 0 40 0L0 0Z" fill="#ff8181"></path><path d="M0 183L40 176.5C80 170 160 157 240 146C320 135 400 126 480 127C560 128 640 139 720 150.2C800 161.3 880 172.7 920 178.3L960 184L960 0L920 0C880 0 800 0 720 0C640 0 560 0 480 0C400 0 320 0 240 0C160 0 80 0 40 0L0 0Z" fill="#ec8080"></path><path d="M0 116L40 116.5C80 117 160 118 240 116.5C320 115 400 111 480 103.3C560 95.7 640 84.3 720 92C800 99.7 880 126.3 920 139.7L960 153L960 0L920 0C880 0 800 0 720 0C640 0 560 0 480 0C400 0 320 0 240 0C160 0 80 0 40 0L0 0Z" fill="#d87f7f"></path><path d="M0 48L40 53.7C80 59.3 160 70.7 240 81.2C320 91.7 400 101.3 480 101.5C560 101.7 640 92.3 720 90.5C800 88.7 880 94.3 920 97.2L960 100L960 0L920 0C880 0 800 0 720 0C640 0 560 0 480 0C400 0 320 0 240 0C160 0 80 0 40 0L0 0Z" fill="#c47d7d"></path><path d="M0 70L40 69.3C80 68.7 160 67.3 240 68C320 68.7 400 71.3 480 71.8C560 72.3 640 70.7 720 67.3C800 64 880 59 920 56.5L960 54L960 0L920 0C880 0 800 0 720 0C640 0 560 0 480 0C400 0 320 0 240 0C160 0 80 0 40 0L0 0Z" fill="#b07b7b"></path></svg>