<svg id="visual" viewBox="0 0 960 300" width="960" height="300" xmlns="http://www.w3.org/2000/svg" xmlns:xlink="http://www.w3.org/1999/xlink" version="1.1"><path d="M0 28L32 33.5C64 39 128 50 192 61C256 72 320 83 384 82C448 81 512 68 576 64.5C640 61 704 67 768 64C832 61 896 49 928 43L960 37L960 0L928 0C896 0 832 0 768 0C704 0 640 0 576 0C512 0 448 0 384 0C320 0 256 0 192 0C128 0 64 0 32 0L0 0Z" fill="#ffffff"></path><path d="M0 67L32 82C64 97 128 127 192 155C256 183 320 209 384 198.5C448 188 512 141 576 133.5C640 126 704 158 768 155C832 152 896 114 928 95L960 76L960 35L928 41C896 47 832 59 768 62C704 65 640 59 576 62.5C512 66 448 79 384 80C320 81 256 70 192 59C128 48 64 37 32 31.5L0 26Z" fill="#aca6b3"></path><path d="M0 88L32 100C64 112 128 136 192 163C256 190 320 220 384 211.5C448 203 512 156 576 152.5C640 149 704 189 768 186.5C832 184 896 139 928 116.5L960 94L960 74L928 93C896 112 832 150 768 153C704 156 640 124 576 131.5C512 139 448 186 384 196.5C320 207 256 181 192 153C128 125 64 95 32 80L0 65Z" fill="#5f556c"></path><path d="M0 139L32 145.5C64 152 128 165 192 184.5C256 204 320 230 384 226C448 222 512 188 576 186C640 184 704 214 768 206.5C832 199 896 154 928 131.5L960 109L960 92L928 114.5C896 137 832 182 768 184.5C704 187 640 147 576 150.5C512 154 448 201 384 209.5C320 218 256 188 192 161C128 134 64 110 32 98L0 86Z" fill="#433852"></path><path d="M0 145L32 154C64 163 128 181 192 202.5C256 224 320 249 384 247.5C448 246 512 218 576 216.5C640 215 704 240 768 233.5C832 227 896 189 928 170L960 151L960 107L928 129.5C896 152 832 197 768 204.5C704 212 640 182 576 184C512 186 448 220 384 224C320 228 256 202 192 182.5C128 163 64 150 32 143.5L0 137Z" fill="#5f556c"></path><path d="M0 187L32 190C64 193 128 199 192 214.5C256 230 320 255 384 255C448 255 512 230 576 230.5C640 231 704 257 768 253C832 249 896 215 928 198L960 181L960 149L928 168C896 187 832 225 768 231.5C704 238 640 213 576 214.5C512 216 448 244 384 245.5C320 247 256 222 192 200.5C128 179 64 161 32 152L0 143Z" fill="#aca6b3"></path><path d="M0 301L32 301C64 301 128 301 192 301C256 301 320 301 384 301C448 301 512 301 576 301C640 301 704 301 768 301C832 301 896 301 928 301L960 301L960 179L928 196C896 213 832 247 768 251C704 255 640 229 576 228.5C512 228 448 253 384 253C320 253 256 228 192 212.5C128 197 64 191 32 188L0 185Z" fill="#ffffff"></path></svg>