<svg id="visual" viewBox="0 0 960 300" width="960" height="300" xmlns="http://www.w3.org/2000/svg" xmlns:xlink="http://www.w3.org/1999/xlink" version="1.1"><rect x="0" y="0" width="960" height="300" fill="#e9e9e9"></rect><path d="M0 60L10.7 75.3C21.3 90.7 42.7 121.3 64 116.7C85.3 112 106.7 72 128 71C149.3 70 170.7 108 192 126.8C213.3 145.7 234.7 145.3 256 139.7C277.3 134 298.7 123 320 109.5C341.3 96 362.7 80 384 70.2C405.3 60.3 426.7 56.7 448 56C469.3 55.3 490.7 57.7 512 75C533.3 92.3 554.7 124.7 576 128.5C597.3 132.3 618.7 107.7 640 108.3C661.3 109 682.7 135 704 135.2C725.3 135.3 746.7 109.7 768 102.5C789.3 95.3 810.7 106.7 832 113.3C853.3 120 874.7 122 896 133C917.3 144 938.7 164 949.3 174L960 184L960 301L949.3 301C938.7 301 917.3 301 896 301C874.7 301 853.3 301 832 301C810.7 301 789.3 301 768 301C746.7 301 725.3 301 704 301C682.7 301 661.3 301 640 301C618.7 301 597.3 301 576 301C554.7 301 533.3 301 512 301C490.7 301 469.3 301 448 301C426.7 301 405.3 301 384 301C362.7 301 341.3 301 320 301C298.7 301 277.3 301 256 301C234.7 301 213.3 301 192 301C170.7 301 149.3 301 128 301C106.7 301 85.3 301 64 301C42.7 301 21.3 301 10.7 301L0 301Z" fill="#e9e9e9"></path><path d="M0 51L10.7 66.3C21.3 81.7 42.7 112.3 64 124.3C85.3 136.3 106.7 129.7 128 127C149.3 124.3 170.7 125.7 192 132.3C213.3 139 234.7 151 256 166.8C277.3 182.7 298.7 202.3 320 198.7C341.3 195 362.7 168 384 142.5C405.3 117 426.7 93 448 84.8C469.3 76.7 490.7 84.3 512 103.8C533.3 123.3 554.7 154.7 576 159C597.3 163.3 618.7 140.7 640 141C661.3 141.3 682.7 164.7 704 173.5C725.3 182.3 746.7 176.7 768 154.5C789.3 132.3 810.7 93.7 832 99C853.3 104.3 874.7 153.7 896 160.3C917.3 167 938.7 131 949.3 113L960 95L960 301L949.3 301C938.7 301 917.3 301 896 301C874.7 301 853.3 301 832 301C810.7 301 789.3 301 768 301C746.7 301 725.3 301 704 301C682.7 301 661.3 301 640 301C618.7 301 597.3 301 576 301C554.7 301 533.3 301 512 301C490.7 301 469.3 301 448 301C426.7 301 405.3 301 384 301C362.7 301 341.3 301 320 301C298.7 301 277.3 301 256 301C234.7 301 213.3 301 192 301C170.7 301 149.3 301 128 301C106.7 301 85.3 301 64 301C42.7 301 21.3 301 10.7 301L0 301Z" fill="#d9dce3"></path><path d="M0 141L10.7 138C21.3 135 42.7 129 64 139C85.3 149 106.7 175 128 182.8C149.3 190.7 170.7 180.3 192 185.8C213.3 191.3 234.7 212.7 256 217.8C277.3 223 298.7 212 320 207.5C341.3 203 362.7 205 384 187.2C405.3 169.3 426.7 131.7 448 116.7C469.3 101.7 490.7 109.3 512 116.7C533.3 124 554.7 131 576 122.7C597.3 114.3 618.7 90.7 640 103.2C661.3 115.7 682.7 164.3 704 180.2C725.3 196 746.7 179 768 155.2C789.3 131.3 810.7 100.7 832 101.8C853.3 103 874.7 136 896 157.7C917.3 179.3 938.7 189.7 949.3 194.8L960 200L960 301L949.3 301C938.7 301 917.3 301 896 301C874.7 301 853.3 301 832 301C810.7 301 789.3 301 768 301C746.7 301 725.3 301 704 301C682.7 301 661.3 301 640 301C618.7 301 597.3 301 576 301C554.7 301 533.3 301 512 301C490.7 301 469.3 301 448 301C426.7 301 405.3 301 384 301C362.7 301 341.3 301 320 301C298.7 301 277.3 301 256 301C234.7 301 213.3 301 192 301C170.7 301 149.3 301 128 301C106.7 301 85.3 301 64 301C42.7 301 21.3 301 10.7 301L0 301Z" fill="#c9d0dc"></path><path d="M0 177L10.7 173.5C21.3 170 42.7 163 64 153.3C85.3 143.7 106.7 131.3 128 141.8C149.3 152.3 170.7 185.7 192 202.7C213.3 219.7 234.7 220.3 256 218.2C277.3 216 298.7 211 320 204C341.3 197 362.7 188 384 193.2C405.3 198.3 426.7 217.7 448 222.8C469.3 228 490.7 219 512 194.5C533.3 170 554.7 130 576 128.5C597.3 127 618.7 164 640 188.3C661.3 212.7 682.7 224.3 704 223.7C725.3 223 746.7 210 768 208.7C789.3 207.3 810.7 217.7 832 207.5C853.3 197.3 874.7 166.7 896 166.3C917.3 166 938.7 196 949.3 211L960 226L960 301L949.3 301C938.7 301 917.3 301 896 301C874.7 301 853.3 301 832 301C810.7 301 789.3 301 768 301C746.7 301 725.3 301 704 301C682.7 301 661.3 301 640 301C618.7 301 597.3 301 576 301C554.7 301 533.3 301 512 301C490.7 301 469.3 301 448 301C426.7 301 405.3 301 384 301C362.7 301 341.3 301 320 301C298.7 301 277.3 301 256 301C234.7 301 213.3 301 192 301C170.7 301 149.3 301 128 301C106.7 301 85.3 301 64 301C42.7 301 21.3 301 10.7 301L0 301Z" fill="#b9c3d6"></path><path d="M0 116L10.7 122.5C21.3 129 42.7 142 64 147.7C85.3 153.3 106.7 151.7 128 161.5C149.3 171.3 170.7 192.7 192 206.2C213.3 219.7 234.7 225.3 256 220.5C277.3 215.7 298.7 200.3 320 184.2C341.3 168 362.7 151 384 156.3C405.3 161.7 426.7 189.3 448 206.7C469.3 224 490.7 231 512 218C533.3 205 554.7 172 576 153C597.3 134 618.7 129 640 129.7C661.3 130.3 682.7 136.7 704 134.5C725.3 132.3 746.7 121.7 768 130.8C789.3 140 810.7 169 832 175.5C853.3 182 874.7 166 896 160.7C917.3 155.3 938.7 160.7 949.3 163.3L960 166L960 301L949.3 301C938.7 301 917.3 301 896 301C874.7 301 853.3 301 832 301C810.7 301 789.3 301 768 301C746.7 301 725.3 301 704 301C682.7 301 661.3 301 640 301C618.7 301 597.3 301 576 301C554.7 301 533.3 301 512 301C490.7 301 469.3 301 448 301C426.7 301 405.3 301 384 301C362.7 301 341.3 301 320 301C298.7 301 277.3 301 256 301C234.7 301 213.3 301 192 301C170.7 301 149.3 301 128 301C106.7 301 85.3 301 64 301C42.7 301 21.3 301 10.7 301L0 301Z" fill="#a9b7cf"></path><path d="M0 156L10.7 153.2C21.3 150.3 42.7 144.7 64 142.5C85.3 140.3 106.7 141.7 128 158.5C149.3 175.3 170.7 207.7 192 212.7C213.3 217.7 234.7 195.3 256 184.7C277.3 174 298.7 175 320 185.3C341.3 195.7 362.7 215.3 384 218.5C405.3 221.7 426.7 208.3 448 194.7C469.3 181 490.7 167 512 158C533.3 149 554.7 145 576 160.8C597.3 176.7 618.7 212.3 640 223.3C661.3 234.3 682.7 220.7 704 203.5C725.3 186.3 746.7 165.7 768 162.3C789.3 159 810.7 173 832 171.3C853.3 169.7 874.7 152.3 896 153.3C917.3 154.3 938.7 173.7 949.3 183.3L960 193L960 301L949.3 301C938.7 301 917.3 301 896 301C874.7 301 853.3 301 832 301C810.7 301 789.3 301 768 301C746.7 301 725.3 301 704 301C682.7 301 661.3 301 640 301C618.7 301 597.3 301 576 301C554.7 301 533.3 301 512 301C490.7 301 469.3 301 448 301C426.7 301 405.3 301 384 301C362.7 301 341.3 301 320 301C298.7 301 277.3 301 256 301C234.7 301 213.3 301 192 301C170.7 301 149.3 301 128 301C106.7 301 85.3 301 64 301C42.7 301 21.3 301 10.7 301L0 301Z" fill="#a2b2cc"></path><path d="M0 186L10.7 194.2C21.3 202.3 42.7 218.7 64 224.8C85.3 231 106.7 227 128 222.7C149.3 218.3 170.7 213.7 192 214.2C213.3 214.7 234.7 220.3 256 219.7C277.3 219 298.7 212 320 204.7C341.3 197.3 362.7 189.7 384 190.7C405.3 191.7 426.7 201.3 448 201C469.3 200.7 490.7 190.3 512 184C533.3 177.7 554.7 175.3 576 170.7C597.3 166 618.7 159 640 160.7C661.3 162.3 682.7 172.7 704 173.2C725.3 173.7 746.7 164.3 768 176.8C789.3 189.3 810.7 223.7 832 225.2C853.3 226.7 874.7 195.3 896 193C917.3 190.7 938.7 217.3 949.3 230.7L960 244L960 301L949.3 301C938.7 301 917.3 301 896 301C874.7 301 853.3 301 832 301C810.7 301 789.3 301 768 301C746.7 301 725.3 301 704 301C682.7 301 661.3 301 640 301C618.7 301 597.3 301 576 301C554.7 301 533.3 301 512 301C490.7 301 469.3 301 448 301C426.7 301 405.3 301 384 301C362.7 301 341.3 301 320 301C298.7 301 277.3 301 256 301C234.7 301 213.3 301 192 301C170.7 301 149.3 301 128 301C106.7 301 85.3 301 64 301C42.7 301 21.3 301 10.7 301L0 301Z" fill="#a2b2cc"></path><path d="M0 230L10.7 235C21.3 240 42.7 250 64 254.3C85.3 258.7 106.7 257.3 128 258.7C149.3 260 170.7 264 192 263.2C213.3 262.3 234.7 256.7 256 252.2C277.3 247.7 298.7 244.3 320 241.2C341.3 238 362.7 235 384 239C405.3 243 426.7 254 448 246.8C469.3 239.7 490.7 214.3 512 208.3C533.3 202.3 554.7 215.7 576 221.8C597.3 228 618.7 227 640 218.8C661.3 210.7 682.7 195.3 704 190C725.3 184.7 746.7 189.3 768 204C789.3 218.7 810.7 243.3 832 244.5C853.3 245.7 874.7 223.3 896 221C917.3 218.7 938.7 236.3 949.3 245.2L960 254L960 301L949.3 301C938.7 301 917.3 301 896 301C874.7 301 853.3 301 832 301C810.7 301 789.3 301 768 301C746.7 301 725.3 301 704 301C682.7 301 661.3 301 640 301C618.7 301 597.3 301 576 301C554.7 301 533.3 301 512 301C490.7 301 469.3 301 448 301C426.7 301 405.3 301 384 301C362.7 301 341.3 301 320 301C298.7 301 277.3 301 256 301C234.7 301 213.3 301 192 301C170.7 301 149.3 301 128 301C106.7 301 85.3 301 64 301C42.7 301 21.3 301 10.7 301L0 301Z" fill="#a9b7cf"></path><path d="M0 231L10.7 232.8C21.3 234.7 42.7 238.3 64 232.8C85.3 227.3 106.7 212.7 128 217.5C149.3 222.3 170.7 246.7 192 249C213.3 251.3 234.7 231.7 256 222.5C277.3 213.3 298.7 214.7 320 223.8C341.3 233 362.7 250 384 255.5C405.3 261 426.7 255 448 255.8C469.3 256.7 490.7 264.3 512 261.8C533.3 259.3 554.7 246.7 576 236.8C597.3 227 618.7 220 640 226.5C661.3 233 682.7 253 704 257.8C725.3 262.7 746.7 252.3 768 252C789.3 251.7 810.7 261.3 832 265.3C853.3 269.3 874.7 267.7 896 263.8C917.3 260 938.7 254 949.3 251L960 248L960 301L949.3 301C938.7 301 917.3 301 896 301C874.7 301 853.3 301 832 301C810.7 301 789.3 301 768 301C746.7 301 725.3 301 704 301C682.7 301 661.3 301 640 301C618.7 301 597.3 301 576 301C554.7 301 533.3 301 512 301C490.7 301 469.3 301 448 301C426.7 301 405.3 301 384 301C362.7 301 341.3 301 320 301C298.7 301 277.3 301 256 301C234.7 301 213.3 301 192 301C170.7 301 149.3 301 128 301C106.7 301 85.3 301 64 301C42.7 301 21.3 301 10.7 301L0 301Z" fill="#b9c3d6"></path><path d="M0 261L10.7 259C21.3 257 42.7 253 64 252.5C85.3 252 106.7 255 128 255.7C149.3 256.3 170.7 254.7 192 251C213.3 247.3 234.7 241.7 256 243C277.3 244.3 298.7 252.7 320 251.2C341.3 249.7 362.7 238.3 384 240.5C405.3 242.7 426.7 258.3 448 262.2C469.3 266 490.7 258 512 257.2C533.3 256.3 554.7 262.7 576 259.8C597.3 257 618.7 245 640 239.2C661.3 233.3 682.7 233.7 704 231C725.3 228.3 746.7 222.7 768 230.3C789.3 238 810.7 259 832 261.2C853.3 263.3 874.7 246.7 896 240.2C917.3 233.7 938.7 237.3 949.3 239.2L960 241L960 301L949.3 301C938.7 301 917.3 301 896 301C874.7 301 853.3 301 832 301C810.7 301 789.3 301 768 301C746.7 301 725.3 301 704 301C682.7 301 661.3 301 640 301C618.7 301 597.3 301 576 301C554.7 301 533.3 301 512 301C490.7 301 469.3 301 448 301C426.7 301 405.3 301 384 301C362.7 301 341.3 301 320 301C298.7 301 277.3 301 256 301C234.7 301 213.3 301 192 301C170.7 301 149.3 301 128 301C106.7 301 85.3 301 64 301C42.7 301 21.3 301 10.7 301L0 301Z" fill="#c9d0dc"></path><path d="M0 285L10.7 277.8C21.3 270.7 42.7 256.3 64 251C85.3 245.7 106.7 249.3 128 255.7C149.3 262 170.7 271 192 276.2C213.3 281.3 234.7 282.7 256 277C277.3 271.3 298.7 258.7 320 258.8C341.3 259 362.7 272 384 271C405.3 270 426.7 255 448 250.8C469.3 246.7 490.7 253.3 512 253.5C533.3 253.7 554.7 247.3 576 247.5C597.3 247.7 618.7 254.3 640 258.3C661.3 262.3 682.7 263.7 704 265.2C725.3 266.7 746.7 268.3 768 268.2C789.3 268 810.7 266 832 266.7C853.3 267.3 874.7 270.7 896 272C917.3 273.3 938.7 272.7 949.3 272.3L960 272L960 301L949.3 301C938.7 301 917.3 301 896 301C874.7 301 853.3 301 832 301C810.7 301 789.3 301 768 301C746.7 301 725.3 301 704 301C682.7 301 661.3 301 640 301C618.7 301 597.3 301 576 301C554.7 301 533.3 301 512 301C490.7 301 469.3 301 448 301C426.7 301 405.3 301 384 301C362.7 301 341.3 301 320 301C298.7 301 277.3 301 256 301C234.7 301 213.3 301 192 301C170.7 301 149.3 301 128 301C106.7 301 85.3 301 64 301C42.7 301 21.3 301 10.7 301L0 301Z" fill="#d9dce3"></path><path d="M0 291L10.7 291.3C21.3 291.7 42.7 292.3 64 287.5C85.3 282.7 106.7 272.3 128 271.8C149.3 271.3 170.7 280.7 192 285.5C213.3 290.3 234.7 290.7 256 288.3C277.3 286 298.7 281 320 279.2C341.3 277.3 362.7 278.7 384 277.2C405.3 275.7 426.7 271.3 448 269.7C469.3 268 490.7 269 512 271.2C533.3 273.3 554.7 276.7 576 275.5C597.3 274.3 618.7 268.7 640 265.5C661.3 262.3 682.7 261.7 704 264.3C725.3 267 746.7 273 768 277.3C789.3 281.7 810.7 284.3 832 286.7C853.3 289 874.7 291 896 286.7C917.3 282.3 938.7 271.7 949.3 266.3L960 261L960 301L949.3 301C938.7 301 917.3 301 896 301C874.7 301 853.3 301 832 301C810.7 301 789.3 301 768 301C746.7 301 725.3 301 704 301C682.7 301 661.3 301 640 301C618.7 301 597.3 301 576 301C554.7 301 533.3 301 512 301C490.7 301 469.3 301 448 301C426.7 301 405.3 301 384 301C362.7 301 341.3 301 320 301C298.7 301 277.3 301 256 301C234.7 301 213.3 301 192 301C170.7 301 149.3 301 128 301C106.7 301 85.3 301 64 301C42.7 301 21.3 301 10.7 301L0 301Z" fill="#e9e9e9"></path></svg>