<?xml version="1.0" encoding="UTF-8" standalone="no"?>
<svg version="1.1" xmlns="http://www.w3.org/2000/svg" width="1000px" height="313px" x="0" y="0" viewBox="0 0 1000 313"><g><rect fill="#e9e9e9" x="0" y="0" width="1000" height="313"/></g><g><circle cx="489.3933982822018" cy="167.1066017177982" r="0.17331932773109265" fill="rgb(222,222,222)" fill-opacity="1"/><circle cx="500" cy="167.1066017177982" r="0.27836134453781497" fill="rgb(219,219,219)" fill-opacity="1"/><circle cx="510.6066017177982" cy="167.1066017177982" r="0.34838935574229735" fill="rgb(217,217,217)" fill-opacity="1"/><circle cx="478.7867965644036" cy="177.71320343559643" r="1.6789215686274508" fill="rgb(179,179,179)" fill-opacity="1"/><circle cx="489.3933982822018" cy="177.71320343559643" r="2.099089635854342" fill="rgb(167,167,167)" fill-opacity="1"/><circle cx="500" cy="177.71320343559643" r="2.379201680672269" fill="rgb(159,159,159)" fill-opacity="1"/><circle cx="510.6066017177982" cy="177.71320343559643" r="2.519257703081233" fill="rgb(155,155,155)" fill-opacity="1"/><circle cx="521.2132034355964" cy="177.71320343559643" r="2.484243697478993" fill="rgb(156,156,156)" fill-opacity="1"/><circle cx="521.2132034355964" cy="167.1066017177982" r="0.3133753501400566" fill="rgb(218,218,218)" fill-opacity="1"/><circle cx="468.18019484660533" cy="188.31980515339464" r="4.375" fill="rgb(102,102,102)" fill-opacity="1"/><circle cx="478.7867965644036" cy="188.31980515339464" r="4.935224089635854" fill="rgb(86,86,86)" fill-opacity="1"/><circle cx="489.3933982822018" cy="188.31980515339464" r="5.355392156862746" fill="rgb(74,74,74)" fill-opacity="1"/><circle cx="500" cy="188.31980515339464" r="5.600490196078432" fill="rgb(67,67,67)" fill-opacity="1"/><circle cx="510.6066017177982" cy="188.31980515339464" r="5.705532212885155" fill="rgb(64,64,64)" fill-opacity="1"/><circle cx="521.2132034355964" cy="188.31980515339464" r="5.705532212885155" fill="rgb(64,64,64)" fill-opacity="1"/><circle cx="531.8198051533947" cy="188.31980515339464" r="5.600490196078432" fill="rgb(67,67,67)" fill-opacity="1"/><circle cx="531.8198051533947" cy="177.71320343559643" r="2.344187675070028" fill="rgb(160,160,160)" fill-opacity="1"/><circle cx="531.8198051533947" cy="167.1066017177982" r="0.27836134453781497" fill="rgb(219,219,219)" fill-opacity="1"/><circle cx="468.18019484660533" cy="177.71320343559643" r="1.2237394957983199" fill="rgb(192,192,192)" fill-opacity="1"/><circle cx="457.57359312880715" cy="198.92640687119285" r="6.125700280112045" fill="rgb(52,52,52)" fill-opacity="1"/><circle cx="468.18019484660533" cy="198.92640687119285" r="6.510854341736695" fill="rgb(41,41,41)" fill-opacity="1"/><circle cx="478.7867965644036" cy="198.92640687119285" r="6.755952380952382" fill="rgb(34,34,34)" fill-opacity="1"/><circle cx="489.3933982822018" cy="198.92640687119285" r="6.896008403361345" fill="rgb(30,30,30)" fill-opacity="1"/><circle cx="500" cy="198.92640687119285" r="6.966036414565827" fill="rgb(28,28,28)" fill-opacity="1"/><circle cx="510.6066017177982" cy="198.92640687119285" r="7.0010504201680686" fill="rgb(27,27,27)" fill-opacity="1"/><circle cx="521.2132034355964" cy="198.92640687119285" r="7.0010504201680686" fill="rgb(27,27,27)" fill-opacity="1"/><circle cx="531.8198051533947" cy="198.92640687119285" r="6.966036414565827" fill="rgb(28,28,28)" fill-opacity="1"/><circle cx="542.4264068711929" cy="198.92640687119285" r="6.896008403361345" fill="rgb(30,30,30)" fill-opacity="1"/><circle cx="542.4264068711929" cy="188.31980515339464" r="5.355392156862746" fill="rgb(74,74,74)" fill-opacity="1"/><circle cx="542.4264068711929" cy="177.71320343559643" r="2.099089635854342" fill="rgb(167,167,167)" fill-opacity="1"/><circle cx="542.4264068711929" cy="167.1066017177982" r="0.17331932773109265" fill="rgb(222,222,222)" fill-opacity="1"/><circle cx="457.57359312880715" cy="177.71320343559643" r="0.7335434173669466" fill="rgb(206,206,206)" fill-opacity="1"/><circle cx="457.57359312880715" cy="188.31980515339464" r="3.6046918767507" fill="rgb(124,124,124)" fill-opacity="1"/><circle cx="446.96699141100896" cy="209.53300858899107" r="6.966036414565827" fill="rgb(28,28,28)" fill-opacity="1"/><circle cx="457.57359312880715" cy="209.53300858899107" r="7.036064425770309" fill="rgb(26,26,26)" fill-opacity="1"/><circle cx="468.18019484660533" cy="209.53300858899107" r="7.036064425770309" fill="rgb(26,26,26)" fill-opacity="1"/><circle cx="478.7867965644036" cy="209.53300858899107" r="7.036064425770309" fill="rgb(26,26,26)" fill-opacity="1"/><circle cx="489.3933982822018" cy="209.53300858899107" r="7.036064425770309" fill="rgb(26,26,26)" fill-opacity="1"/><circle cx="500" cy="209.53300858899107" r="7.036064425770309" fill="rgb(26,26,26)" fill-opacity="1"/><circle cx="510.6066017177982" cy="209.53300858899107" r="7.036064425770309" fill="rgb(26,26,26)" fill-opacity="1"/><circle cx="521.2132034355964" cy="209.53300858899107" r="7.036064425770309" fill="rgb(26,26,26)" fill-opacity="1"/><circle cx="531.8198051533947" cy="209.53300858899107" r="7.036064425770309" fill="rgb(26,26,26)" fill-opacity="1"/><circle cx="542.4264068711929" cy="209.53300858899107" r="7.036064425770309" fill="rgb(26,26,26)" fill-opacity="1"/><circle cx="553.033008588991" cy="209.53300858899107" r="7.036064425770309" fill="rgb(26,26,26)" fill-opacity="1"/><circle cx="553.033008588991" cy="198.92640687119285" r="6.790966386554623" fill="rgb(33,33,33)" fill-opacity="1"/><circle cx="553.033008588991" cy="188.31980515339464" r="5.005252100840336" fill="rgb(84,84,84)" fill-opacity="1"/><circle cx="553.033008588991" cy="177.71320343559643" r="1.7489495798319332" fill="rgb(177,177,177)" fill-opacity="1"/><circle cx="553.033008588991" cy="167.1066017177982" r="0.03326330532212873" fill="rgb(226,226,226)" fill-opacity="1"/><circle cx="446.96699141100896" cy="177.71320343559643" r="0.3133753501400566" fill="rgb(218,218,218)" fill-opacity="1"/><circle cx="446.96699141100896" cy="188.31980515339464" r="2.7293417366946797" fill="rgb(149,149,149)" fill-opacity="1"/><circle cx="446.96699141100896" cy="198.92640687119285" r="5.565476190476191" fill="rgb(68,68,68)" fill-opacity="1"/><circle cx="436.3603896932107" cy="220.13961030678928" r="7.036064425770309" fill="rgb(26,26,26)" fill-opacity="1"/><circle cx="446.96699141100896" cy="220.13961030678928" r="7.036064425770309" fill="rgb(26,26,26)" fill-opacity="1"/><circle cx="457.57359312880715" cy="220.13961030678928" r="7.036064425770309" fill="rgb(26,26,26)" fill-opacity="1"/><circle cx="468.18019484660533" cy="220.13961030678928" r="7.036064425770309" fill="rgb(26,26,26)" fill-opacity="1"/><circle cx="478.7867965644036" cy="220.13961030678928" r="7.036064425770309" fill="rgb(26,26,26)" fill-opacity="1"/><circle cx="489.3933982822018" cy="220.13961030678928" r="7.036064425770309" fill="rgb(26,26,26)" fill-opacity="1"/><circle cx="500" cy="220.13961030678928" r="7.036064425770309" fill="rgb(26,26,26)" fill-opacity="1"/><circle cx="510.6066017177982" cy="220.13961030678928" r="7.036064425770309" fill="rgb(26,26,26)" fill-opacity="1"/><circle cx="521.2132034355964" cy="220.13961030678928" r="7.036064425770309" fill="rgb(26,26,26)" fill-opacity="1"/><circle cx="531.8198051533947" cy="220.13961030678928" r="7.036064425770309" fill="rgb(26,26,26)" fill-opacity="1"/><circle cx="542.4264068711929" cy="220.13961030678928" r="6.966036414565827" fill="rgb(28,28,28)" fill-opacity="1"/><circle cx="553.033008588991" cy="220.13961030678928" r="6.860994397759105" fill="rgb(31,31,31)" fill-opacity="1"/><circle cx="563.6396103067893" cy="220.13961030678928" r="6.685924369747899" fill="rgb(36,36,36)" fill-opacity="1"/><circle cx="563.6396103067893" cy="209.53300858899107" r="7.036064425770309" fill="rgb(26,26,26)" fill-opacity="1"/><circle cx="563.6396103067893" cy="198.92640687119285" r="6.615896358543417" fill="rgb(38,38,38)" fill-opacity="1"/><circle cx="563.6396103067893" cy="188.31980515339464" r="4.620098039215686" fill="rgb(95,95,95)" fill-opacity="1"/><circle cx="563.6396103067893" cy="177.71320343559643" r="1.363795518207283" fill="rgb(188,188,188)" fill-opacity="1"/><circle cx="436.3603896932107" cy="177.71320343559643" r="0.03326330532212873" fill="rgb(226,226,226)" fill-opacity="1"/><circle cx="436.3603896932107" cy="188.31980515339464" r="1.9590336134453779" fill="rgb(171,171,171)" fill-opacity="1"/><circle cx="436.3603896932107" cy="198.92640687119285" r="4.935224089635854" fill="rgb(86,86,86)" fill-opacity="1"/><circle cx="436.3603896932107" cy="209.53300858899107" r="6.825980392156864" fill="rgb(32,32,32)" fill-opacity="1"/><circle cx="425.7537879754125" cy="230.7462120245875" r="6.370798319327731" fill="rgb(45,45,45)" fill-opacity="1"/><circle cx="436.3603896932107" cy="230.7462120245875" r="6.510854341736695" fill="rgb(41,41,41)" fill-opacity="1"/><circle cx="446.96699141100896" cy="230.7462120245875" r="6.615896358543417" fill="rgb(38,38,38)" fill-opacity="1"/><circle cx="457.57359312880715" cy="230.7462120245875" r="6.685924369747899" fill="rgb(36,36,36)" fill-opacity="1"/><circle cx="468.18019484660533" cy="230.7462120245875" r="6.7209383753501415" fill="rgb(35,35,35)" fill-opacity="1"/><circle cx="478.7867965644036" cy="230.7462120245875" r="6.7209383753501415" fill="rgb(35,35,35)" fill-opacity="1"/><circle cx="489.3933982822018" cy="230.7462120245875" r="6.7209383753501415" fill="rgb(35,35,35)" fill-opacity="1"/><circle cx="500" cy="230.7462120245875" r="6.650910364145658" fill="rgb(37,37,37)" fill-opacity="1"/><circle cx="510.6066017177982" cy="230.7462120245875" r="6.545868347338936" fill="rgb(40,40,40)" fill-opacity="1"/><circle cx="521.2132034355964" cy="230.7462120245875" r="6.33578431372549" fill="rgb(46,46,46)" fill-opacity="1"/><circle cx="531.8198051533947" cy="230.7462120245875" r="6.090686274509804" fill="rgb(53,53,53)" fill-opacity="1"/><circle cx="542.4264068711929" cy="230.7462120245875" r="5.740546218487395" fill="rgb(63,63,63)" fill-opacity="1"/><circle cx="553.033008588991" cy="230.7462120245875" r="5.285364145658263" fill="rgb(76,76,76)" fill-opacity="1"/><circle cx="563.6396103067893" cy="230.7462120245875" r="4.76015406162465" fill="rgb(91,91,91)" fill-opacity="1"/><circle cx="574.2462120245875" cy="230.7462120245875" r="4.059873949579832" fill="rgb(111,111,111)" fill-opacity="1"/><circle cx="574.2462120245875" cy="220.13961030678928" r="6.370798319327731" fill="rgb(45,45,45)" fill-opacity="1"/><circle cx="574.2462120245875" cy="209.53300858899107" r="7.036064425770309" fill="rgb(26,26,26)" fill-opacity="1"/><circle cx="574.2462120245875" cy="198.92640687119285" r="6.370798319327731" fill="rgb(45,45,45)" fill-opacity="1"/><circle cx="574.2462120245875" cy="188.31980515339464" r="4.059873949579832" fill="rgb(111,111,111)" fill-opacity="1"/><circle cx="574.2462120245875" cy="177.71320343559643" r="0.9786414565826329" fill="rgb(199,199,199)" fill-opacity="1"/><circle cx="425.7537879754125" cy="188.31980515339464" r="1.2237394957983199" fill="rgb(192,192,192)" fill-opacity="1"/><circle cx="425.7537879754125" cy="198.92640687119285" r="4.059873949579832" fill="rgb(111,111,111)" fill-opacity="1"/><circle cx="425.7537879754125" cy="209.53300858899107" r="6.475840336134454" fill="rgb(42,42,42)" fill-opacity="1"/><circle cx="425.7537879754125" cy="220.13961030678928" r="7.036064425770309" fill="rgb(26,26,26)" fill-opacity="1"/><circle cx="415.1471862576143" cy="241.3528137423857" r="3.324579831932773" fill="rgb(132,132,132)" fill-opacity="1"/><circle cx="425.7537879754125" cy="241.3528137423857" r="3.709733893557423" fill="rgb(121,121,121)" fill-opacity="1"/><circle cx="436.3603896932107" cy="241.3528137423857" r="4.059873949579832" fill="rgb(111,111,111)" fill-opacity="1"/><circle cx="446.96699141100896" cy="241.3528137423857" r="4.269957983193278" fill="rgb(105,105,105)" fill-opacity="1"/><circle cx="457.57359312880715" cy="241.3528137423857" r="4.480042016806723" fill="rgb(99,99,99)" fill-opacity="1"/><circle cx="468.18019484660533" cy="241.3528137423857" r="4.5850840336134455" fill="rgb(96,96,96)" fill-opacity="1"/><circle cx="478.7867965644036" cy="241.3528137423857" r="4.620098039215686" fill="rgb(95,95,95)" fill-opacity="1"/><circle cx="489.3933982822018" cy="241.3528137423857" r="4.550070028011205" fill="rgb(97,97,97)" fill-opacity="1"/><circle cx="500" cy="241.3528137423857" r="4.375" fill="rgb(102,102,102)" fill-opacity="1"/><circle cx="510.6066017177982" cy="241.3528137423857" r="4.129901960784314" fill="rgb(109,109,109)" fill-opacity="1"/><circle cx="521.2132034355964" cy="241.3528137423857" r="3.6747198879551823" fill="rgb(122,122,122)" fill-opacity="1"/><circle cx="531.8198051533947" cy="241.3528137423857" r="3.1845238095238098" fill="rgb(136,136,136)" fill-opacity="1"/><circle cx="542.4264068711929" cy="241.3528137423857" r="2.624299719887956" fill="rgb(152,152,152)" fill-opacity="1"/><circle cx="553.033008588991" cy="241.3528137423857" r="2.029061624649861" fill="rgb(169,169,169)" fill-opacity="1"/><circle cx="563.6396103067893" cy="241.3528137423857" r="1.5388655462184886" fill="rgb(183,183,183)" fill-opacity="1"/><circle cx="574.2462120245875" cy="241.3528137423857" r="1.0136554621848737" fill="rgb(198,198,198)" fill-opacity="1"/><circle cx="584.8528137423857" cy="241.3528137423857" r="0.6285014005602252" fill="rgb(209,209,209)" fill-opacity="1"/><circle cx="584.8528137423857" cy="230.7462120245875" r="3.3946078431372544" fill="rgb(130,130,130)" fill-opacity="1"/><circle cx="584.8528137423857" cy="220.13961030678928" r="6.0206582633053225" fill="rgb(55,55,55)" fill-opacity="1"/><circle cx="584.8528137423857" cy="209.53300858899107" r="7.036064425770309" fill="rgb(26,26,26)" fill-opacity="1"/><circle cx="584.8528137423857" cy="198.92640687119285" r="6.055672268907563" fill="rgb(54,54,54)" fill-opacity="1"/><circle cx="584.8528137423857" cy="188.31980515339464" r="3.4646358543417377" fill="rgb(128,128,128)" fill-opacity="1"/><circle cx="584.8528137423857" cy="177.71320343559643" r="0.663515406162466" fill="rgb(208,208,208)" fill-opacity="1"/><circle cx="415.1471862576143" cy="188.31980515339464" r="0.6985294117647058" fill="rgb(207,207,207)" fill-opacity="1"/><circle cx="415.1471862576143" cy="198.92640687119285" r="3.149509803921569" fill="rgb(137,137,137)" fill-opacity="1"/><circle cx="415.1471862576143" cy="209.53300858899107" r="6.055672268907563" fill="rgb(54,54,54)" fill-opacity="1"/><circle cx="415.1471862576143" cy="220.13961030678928" r="7.036064425770309" fill="rgb(26,26,26)" fill-opacity="1"/><circle cx="415.1471862576143" cy="230.7462120245875" r="6.195728291316527" fill="rgb(50,50,50)" fill-opacity="1"/><circle cx="404.5405845398161" cy="251.95941546018392" r="0.5234593837535012" fill="rgb(212,212,212)" fill-opacity="1"/><circle cx="415.1471862576143" cy="251.95941546018392" r="0.7335434173669466" fill="rgb(206,206,206)" fill-opacity="1"/><circle cx="425.7537879754125" cy="251.95941546018392" r="0.9436274509803921" fill="rgb(200,200,200)" fill-opacity="1"/><circle cx="436.3603896932107" cy="251.95941546018392" r="1.1537114845938377" fill="rgb(194,194,194)" fill-opacity="1"/><circle cx="446.96699141100896" cy="251.95941546018392" r="1.3287815126050422" fill="rgb(189,189,189)" fill-opacity="1"/><circle cx="457.57359312880715" cy="251.95941546018392" r="1.4688375350140062" fill="rgb(185,185,185)" fill-opacity="1"/><circle cx="468.18019484660533" cy="251.95941546018392" r="1.5738795518207294" fill="rgb(182,182,182)" fill-opacity="1"/><circle cx="478.7867965644036" cy="251.95941546018392" r="1.6088935574229692" fill="rgb(181,181,181)" fill-opacity="1"/><circle cx="489.3933982822018" cy="251.95941546018392" r="1.5388655462184886" fill="rgb(183,183,183)" fill-opacity="1"/><circle cx="500" cy="251.95941546018392" r="1.3988095238095237" fill="rgb(187,187,187)" fill-opacity="1"/><circle cx="510.6066017177982" cy="251.95941546018392" r="1.2237394957983199" fill="rgb(192,192,192)" fill-opacity="1"/><circle cx="521.2132034355964" cy="251.95941546018392" r="0.9436274509803921" fill="rgb(200,200,200)" fill-opacity="1"/><circle cx="531.8198051533947" cy="251.95941546018392" r="0.663515406162466" fill="rgb(208,208,208)" fill-opacity="1"/><circle cx="542.4264068711929" cy="251.95941546018392" r="0.38340336134453895" fill="rgb(216,216,216)" fill-opacity="1"/><circle cx="553.033008588991" cy="251.95941546018392" r="0.13830532212885271" fill="rgb(223,223,223)" fill-opacity="1"/><circle cx="595.4594154601839" cy="241.3528137423857" r="0.27836134453781497" fill="rgb(219,219,219)" fill-opacity="1"/><circle cx="595.4594154601839" cy="230.7462120245875" r="2.659313725490197" fill="rgb(151,151,151)" fill-opacity="1"/><circle cx="595.4594154601839" cy="220.13961030678928" r="5.53046218487395" fill="rgb(69,69,69)" fill-opacity="1"/><circle cx="595.4594154601839" cy="209.53300858899107" r="6.931022408963586" fill="rgb(29,29,29)" fill-opacity="1"/><circle cx="595.4594154601839" cy="198.92640687119285" r="5.635504201680673" fill="rgb(66,66,66)" fill-opacity="1"/><circle cx="595.4594154601839" cy="188.31980515339464" r="2.79936974789916" fill="rgb(147,147,147)" fill-opacity="1"/><circle cx="595.4594154601839" cy="177.71320343559643" r="0.34838935574229735" fill="rgb(217,217,217)" fill-opacity="1"/><circle cx="404.5405845398161" cy="188.31980515339464" r="0.2433473389355742" fill="rgb(220,220,220)" fill-opacity="1"/><circle cx="404.5405845398161" cy="198.92640687119285" r="2.239145658263306" fill="rgb(163,163,163)" fill-opacity="1"/><circle cx="404.5405845398161" cy="209.53300858899107" r="5.425420168067228" fill="rgb(72,72,72)" fill-opacity="1"/><circle cx="404.5405845398161" cy="220.13961030678928" r="6.931022408963586" fill="rgb(29,29,29)" fill-opacity="1"/><circle cx="404.5405845398161" cy="230.7462120245875" r="5.950630252100841" fill="rgb(57,57,57)" fill-opacity="1"/><circle cx="404.5405845398161" cy="241.3528137423857" r="2.9044117647058822" fill="rgb(144,144,144)" fill-opacity="1"/><circle cx="606.0660171779821" cy="241.3528137423857" r="0.03326330532212873" fill="rgb(226,226,226)" fill-opacity="1"/><circle cx="606.0660171779821" cy="230.7462120245875" r="1.9590336134453779" fill="rgb(171,171,171)" fill-opacity="1"/><circle cx="606.0660171779821" cy="220.13961030678928" r="4.970238095238095" fill="rgb(85,85,85)" fill-opacity="1"/><circle cx="606.0660171779821" cy="209.53300858899107" r="6.685924369747899" fill="rgb(36,36,36)" fill-opacity="1"/><circle cx="606.0660171779821" cy="198.92640687119285" r="5.18032212885154" fill="rgb(79,79,79)" fill-opacity="1"/><circle cx="606.0660171779821" cy="188.31980515339464" r="2.1691176470588243" fill="rgb(165,165,165)" fill-opacity="1"/><circle cx="606.0660171779821" cy="177.71320343559643" r="0.10329131652661028" fill="rgb(224,224,224)" fill-opacity="1"/><circle cx="393.93398282201787" cy="198.92640687119285" r="1.503851540616247" fill="rgb(184,184,184)" fill-opacity="1"/><circle cx="393.93398282201787" cy="209.53300858899107" r="4.725140056022409" fill="rgb(92,92,92)" fill-opacity="1"/><circle cx="393.93398282201787" cy="220.13961030678928" r="6.685924369747899" fill="rgb(36,36,36)" fill-opacity="1"/><circle cx="393.93398282201787" cy="230.7462120245875" r="5.670518207282914" fill="rgb(65,65,65)" fill-opacity="1"/><circle cx="393.93398282201787" cy="241.3528137423857" r="2.519257703081233" fill="rgb(155,155,155)" fill-opacity="1"/><circle cx="393.93398282201787" cy="251.95941546018392" r="0.34838935574229735" fill="rgb(217,217,217)" fill-opacity="1"/><circle cx="616.6726188957804" cy="230.7462120245875" r="1.4688375350140062" fill="rgb(185,185,185)" fill-opacity="1"/><circle cx="616.6726188957804" cy="220.13961030678928" r="4.410014005602241" fill="rgb(101,101,101)" fill-opacity="1"/><circle cx="616.6726188957804" cy="209.53300858899107" r="6.33578431372549" fill="rgb(46,46,46)" fill-opacity="1"/><circle cx="616.6726188957804" cy="198.92640687119285" r="4.690126050420168" fill="rgb(93,93,93)" fill-opacity="1"/><circle cx="616.6726188957804" cy="188.31980515339464" r="1.7139355742296916" fill="rgb(178,178,178)" fill-opacity="1"/><circle cx="383.3273811042196" cy="198.92640687119285" r="1.0136554621848737" fill="rgb(198,198,198)" fill-opacity="1"/><circle cx="383.3273811042196" cy="209.53300858899107" r="4.059873949579832" fill="rgb(111,111,111)" fill-opacity="1"/><circle cx="383.3273811042196" cy="220.13961030678928" r="6.33578431372549" fill="rgb(46,46,46)" fill-opacity="1"/><circle cx="383.3273811042196" cy="230.7462120245875" r="5.390406162464987" fill="rgb(73,73,73)" fill-opacity="1"/><circle cx="383.3273811042196" cy="241.3528137423857" r="2.1341036414565826" fill="rgb(166,166,166)" fill-opacity="1"/><circle cx="383.3273811042196" cy="251.95941546018392" r="0.17331932773109265" fill="rgb(222,222,222)" fill-opacity="1"/><circle cx="627.2792206135786" cy="230.7462120245875" r="1.0136554621848737" fill="rgb(198,198,198)" fill-opacity="1"/><circle cx="627.2792206135786" cy="220.13961030678928" r="3.7797619047619047" fill="rgb(119,119,119)" fill-opacity="1"/><circle cx="627.2792206135786" cy="209.53300858899107" r="5.880602240896359" fill="rgb(59,59,59)" fill-opacity="1"/><circle cx="627.2792206135786" cy="198.92640687119285" r="4.1649159663865545" fill="rgb(108,108,108)" fill-opacity="1"/><circle cx="627.2792206135786" cy="188.31980515339464" r="1.2587535014005606" fill="rgb(191,191,191)" fill-opacity="1"/><circle cx="372.72077938642144" cy="198.92640687119285" r="0.5934873949579835" fill="rgb(210,210,210)" fill-opacity="1"/><circle cx="372.72077938642144" cy="209.53300858899107" r="3.3595938375350136" fill="rgb(131,131,131)" fill-opacity="1"/><circle cx="372.72077938642144" cy="220.13961030678928" r="5.9156162464986" fill="rgb(58,58,58)" fill-opacity="1"/><circle cx="372.72077938642144" cy="230.7462120245875" r="5.040266106442577" fill="rgb(83,83,83)" fill-opacity="1"/><circle cx="372.72077938642144" cy="241.3528137423857" r="1.7489495798319332" fill="rgb(177,177,177)" fill-opacity="1"/><circle cx="372.72077938642144" cy="251.95941546018392" r="0.03326330532212873" fill="rgb(226,226,226)" fill-opacity="1"/><circle cx="637.8858223313767" cy="230.7462120245875" r="0.6985294117647058" fill="rgb(207,207,207)" fill-opacity="1"/><circle cx="637.8858223313767" cy="220.13961030678928" r="3.2195378151260505" fill="rgb(135,135,135)" fill-opacity="1"/><circle cx="637.8858223313767" cy="209.53300858899107" r="5.390406162464987" fill="rgb(73,73,73)" fill-opacity="1"/><circle cx="637.8858223313767" cy="198.92640687119285" r="3.6747198879551823" fill="rgb(122,122,122)" fill-opacity="1"/><circle cx="637.8858223313767" cy="188.31980515339464" r="0.9436274509803921" fill="rgb(200,200,200)" fill-opacity="1"/><circle cx="362.11417766862326" cy="198.92640687119285" r="0.34838935574229735" fill="rgb(217,217,217)" fill-opacity="1"/><circle cx="362.11417766862326" cy="209.53300858899107" r="2.8343837535014007" fill="rgb(146,146,146)" fill-opacity="1"/><circle cx="362.11417766862326" cy="220.13961030678928" r="5.495448179271709" fill="rgb(70,70,70)" fill-opacity="1"/><circle cx="362.11417766862326" cy="230.7462120245875" r="4.655112044817927" fill="rgb(94,94,94)" fill-opacity="1"/><circle cx="362.11417766862326" cy="241.3528137423857" r="1.4338235294117645" fill="rgb(186,186,186)" fill-opacity="1"/><circle cx="648.492424049175" cy="230.7462120245875" r="0.4184173669467789" fill="rgb(215,215,215)" fill-opacity="1"/><circle cx="648.492424049175" cy="220.13961030678928" r="2.659313725490197" fill="rgb(151,151,151)" fill-opacity="1"/><circle cx="648.492424049175" cy="209.53300858899107" r="4.830182072829132" fill="rgb(89,89,89)" fill-opacity="1"/><circle cx="648.492424049175" cy="198.92640687119285" r="3.149509803921569" fill="rgb(137,137,137)" fill-opacity="1"/><circle cx="648.492424049175" cy="188.31980515339464" r="0.663515406162466" fill="rgb(208,208,208)" fill-opacity="1"/><circle cx="351.507575950825" cy="198.92640687119285" r="0.17331932773109265" fill="rgb(222,222,222)" fill-opacity="1"/><circle cx="351.507575950825" cy="209.53300858899107" r="2.379201680672269" fill="rgb(159,159,159)" fill-opacity="1"/><circle cx="351.507575950825" cy="220.13961030678928" r="5.040266106442577" fill="rgb(83,83,83)" fill-opacity="1"/><circle cx="351.507575950825" cy="230.7462120245875" r="4.199929971988796" fill="rgb(107,107,107)" fill-opacity="1"/><circle cx="351.507575950825" cy="241.3528137423857" r="1.1186974789915975" fill="rgb(195,195,195)" fill-opacity="1"/><circle cx="659.0990257669732" cy="230.7462120245875" r="0.20833333333333343" fill="rgb(221,221,221)" fill-opacity="1"/><circle cx="659.0990257669732" cy="220.13961030678928" r="2.204131652661065" fill="rgb(164,164,164)" fill-opacity="1"/><circle cx="659.0990257669732" cy="209.53300858899107" r="4.269957983193278" fill="rgb(105,105,105)" fill-opacity="1"/><circle cx="659.0990257669732" cy="198.92640687119285" r="2.6943277310924376" fill="rgb(150,150,150)" fill-opacity="1"/><circle cx="659.0990257669732" cy="188.31980515339464" r="0.45343137254901966" fill="rgb(214,214,214)" fill-opacity="1"/><circle cx="340.9009742330268" cy="198.92640687119285" r="0.06827731092437034" fill="rgb(225,225,225)" fill-opacity="1"/><circle cx="340.9009742330268" cy="209.53300858899107" r="2.099089635854342" fill="rgb(167,167,167)" fill-opacity="1"/><circle cx="340.9009742330268" cy="220.13961030678928" r="4.5850840336134455" fill="rgb(96,96,96)" fill-opacity="1"/><circle cx="340.9009742330268" cy="230.7462120245875" r="3.744747899159664" fill="rgb(120,120,120)" fill-opacity="1"/><circle cx="340.9009742330268" cy="241.3528137423857" r="0.8735994397759115" fill="rgb(202,202,202)" fill-opacity="1"/><circle cx="669.7056274847714" cy="230.7462120245875" r="0.10329131652661028" fill="rgb(224,224,224)" fill-opacity="1"/><circle cx="669.7056274847714" cy="220.13961030678928" r="1.8890056022408963" fill="rgb(173,173,173)" fill-opacity="1"/><circle cx="669.7056274847714" cy="209.53300858899107" r="3.8147759103641454" fill="rgb(118,118,118)" fill-opacity="1"/><circle cx="669.7056274847714" cy="198.92640687119285" r="2.3091736694677873" fill="rgb(161,161,161)" fill-opacity="1"/><circle cx="669.7056274847714" cy="188.31980515339464" r="0.3133753501400566" fill="rgb(218,218,218)" fill-opacity="1"/><circle cx="330.2943725152286" cy="209.53300858899107" r="1.924019607843137" fill="rgb(172,172,172)" fill-opacity="1"/><circle cx="330.2943725152286" cy="220.13961030678928" r="4.269957983193278" fill="rgb(105,105,105)" fill-opacity="1"/><circle cx="330.2943725152286" cy="230.7462120245875" r="3.289565826330532" fill="rgb(133,133,133)" fill-opacity="1"/><circle cx="330.2943725152286" cy="241.3528137423857" r="0.663515406162466" fill="rgb(208,208,208)" fill-opacity="1"/><circle cx="680.3122292025696" cy="220.13961030678928" r="1.5738795518207294" fill="rgb(182,182,182)" fill-opacity="1"/><circle cx="680.3122292025696" cy="209.53300858899107" r="3.324579831932773" fill="rgb(132,132,132)" fill-opacity="1"/><circle cx="680.3122292025696" cy="198.92640687119285" r="1.9590336134453779" fill="rgb(171,171,171)" fill-opacity="1"/><circle cx="680.3122292025696" cy="188.31980515339464" r="0.17331932773109265" fill="rgb(222,222,222)" fill-opacity="1"/><circle cx="319.6877707974304" cy="209.53300858899107" r="1.7839635854341749" fill="rgb(176,176,176)" fill-opacity="1"/><circle cx="319.6877707974304" cy="220.13961030678928" r="3.9198179271708695" fill="rgb(115,115,115)" fill-opacity="1"/><circle cx="319.6877707974304" cy="230.7462120245875" r="2.8693977591036415" fill="rgb(145,145,145)" fill-opacity="1"/><circle cx="319.6877707974304" cy="241.3528137423857" r="0.45343137254901966" fill="rgb(214,214,214)" fill-opacity="1"/><circle cx="690.9188309203678" cy="220.13961030678928" r="1.363795518207283" fill="rgb(188,188,188)" fill-opacity="1"/><circle cx="690.9188309203678" cy="209.53300858899107" r="2.9394257703081244" fill="rgb(143,143,143)" fill-opacity="1"/><circle cx="690.9188309203678" cy="198.92640687119285" r="1.64390756302521" fill="rgb(180,180,180)" fill-opacity="1"/><circle cx="690.9188309203678" cy="188.31980515339464" r="0.10329131652661028" fill="rgb(224,224,224)" fill-opacity="1"/><circle cx="309.08116907963216" cy="209.53300858899107" r="1.7489495798319332" fill="rgb(177,177,177)" fill-opacity="1"/><circle cx="309.08116907963216" cy="220.13961030678928" r="3.6747198879551823" fill="rgb(122,122,122)" fill-opacity="1"/><circle cx="309.08116907963216" cy="230.7462120245875" r="2.519257703081233" fill="rgb(155,155,155)" fill-opacity="1"/><circle cx="309.08116907963216" cy="241.3528137423857" r="0.3133753501400566" fill="rgb(218,218,218)" fill-opacity="1"/><circle cx="701.5254326381661" cy="220.13961030678928" r="1.1887254901960784" fill="rgb(193,193,193)" fill-opacity="1"/><circle cx="701.5254326381661" cy="209.53300858899107" r="2.5542717086834736" fill="rgb(154,154,154)" fill-opacity="1"/><circle cx="701.5254326381661" cy="198.92640687119285" r="1.363795518207283" fill="rgb(188,188,188)" fill-opacity="1"/><circle cx="298.4745673618339" cy="209.53300858899107" r="1.7489495798319332" fill="rgb(177,177,177)" fill-opacity="1"/><circle cx="298.4745673618339" cy="220.13961030678928" r="3.4646358543417377" fill="rgb(128,128,128)" fill-opacity="1"/><circle cx="298.4745673618339" cy="230.7462120245875" r="2.1341036414565826" fill="rgb(166,166,166)" fill-opacity="1"/><circle cx="298.4745673618339" cy="241.3528137423857" r="0.17331932773109265" fill="rgb(222,222,222)" fill-opacity="1"/><circle cx="712.1320343559643" cy="220.13961030678928" r="1.0486694677871145" fill="rgb(197,197,197)" fill-opacity="1"/><circle cx="712.1320343559643" cy="209.53300858899107" r="2.3091736694677873" fill="rgb(161,161,161)" fill-opacity="1"/><circle cx="712.1320343559643" cy="198.92640687119285" r="1.1537114845938377" fill="rgb(194,194,194)" fill-opacity="1"/><circle cx="287.86796564403573" cy="209.53300858899107" r="1.7839635854341749" fill="rgb(176,176,176)" fill-opacity="1"/><circle cx="287.86796564403573" cy="220.13961030678928" r="3.2545518207282913" fill="rgb(134,134,134)" fill-opacity="1"/><circle cx="287.86796564403573" cy="230.7462120245875" r="1.8189775910364157" fill="rgb(175,175,175)" fill-opacity="1"/><circle cx="287.86796564403573" cy="241.3528137423857" r="0.03326330532212873" fill="rgb(226,226,226)" fill-opacity="1"/><circle cx="722.7386360737624" cy="220.13961030678928" r="1.0136554621848737" fill="rgb(198,198,198)" fill-opacity="1"/><circle cx="722.7386360737624" cy="209.53300858899107" r="2.1691176470588243" fill="rgb(165,165,165)" fill-opacity="1"/><circle cx="722.7386360737624" cy="198.92640687119285" r="1.0486694677871145" fill="rgb(197,197,197)" fill-opacity="1"/><circle cx="277.26136392623755" cy="198.92640687119285" r="0.06827731092437034" fill="rgb(225,225,225)" fill-opacity="1"/><circle cx="277.26136392623755" cy="209.53300858899107" r="1.8189775910364157" fill="rgb(175,175,175)" fill-opacity="1"/><circle cx="277.26136392623755" cy="220.13961030678928" r="3.0794817927170874" fill="rgb(139,139,139)" fill-opacity="1"/><circle cx="277.26136392623755" cy="230.7462120245875" r="1.5738795518207294" fill="rgb(182,182,182)" fill-opacity="1"/><circle cx="733.3452377915607" cy="220.13961030678928" r="1.0836834733893561" fill="rgb(196,196,196)" fill-opacity="1"/><circle cx="733.3452377915607" cy="209.53300858899107" r="2.1341036414565826" fill="rgb(166,166,166)" fill-opacity="1"/><circle cx="733.3452377915607" cy="198.92640687119285" r="0.9786414565826329" fill="rgb(199,199,199)" fill-opacity="1"/><circle cx="266.6547622084393" cy="198.92640687119285" r="0.13830532212885271" fill="rgb(223,223,223)" fill-opacity="1"/><circle cx="266.6547622084393" cy="209.53300858899107" r="1.924019607843137" fill="rgb(172,172,172)" fill-opacity="1"/><circle cx="266.6547622084393" cy="220.13961030678928" r="2.9394257703081244" fill="rgb(143,143,143)" fill-opacity="1"/><circle cx="266.6547622084393" cy="230.7462120245875" r="1.363795518207283" fill="rgb(188,188,188)" fill-opacity="1"/><circle cx="743.9518395093589" cy="220.13961030678928" r="1.2237394957983199" fill="rgb(192,192,192)" fill-opacity="1"/><circle cx="743.9518395093589" cy="209.53300858899107" r="2.204131652661065" fill="rgb(164,164,164)" fill-opacity="1"/><circle cx="743.9518395093589" cy="198.92640687119285" r="0.9436274509803921" fill="rgb(200,200,200)" fill-opacity="1"/><circle cx="256.04816049064107" cy="198.92640687119285" r="0.2433473389355742" fill="rgb(220,220,220)" fill-opacity="1"/><circle cx="256.04816049064107" cy="209.53300858899107" r="2.064075630252101" fill="rgb(168,168,168)" fill-opacity="1"/><circle cx="256.04816049064107" cy="220.13961030678928" r="2.8343837535014007" fill="rgb(146,146,146)" fill-opacity="1"/><circle cx="256.04816049064107" cy="230.7462120245875" r="1.1537114845938377" fill="rgb(194,194,194)" fill-opacity="1"/><circle cx="754.5584412271571" cy="230.7462120245875" r="0.10329131652661028" fill="rgb(224,224,224)" fill-opacity="1"/><circle cx="754.5584412271571" cy="220.13961030678928" r="1.4688375350140062" fill="rgb(185,185,185)" fill-opacity="1"/><circle cx="754.5584412271571" cy="209.53300858899107" r="2.379201680672269" fill="rgb(159,159,159)" fill-opacity="1"/><circle cx="754.5584412271571" cy="198.92640687119285" r="0.9086134453781514" fill="rgb(201,201,201)" fill-opacity="1"/><circle cx="245.44155877284288" cy="198.92640687119285" r="0.38340336134453895" fill="rgb(216,216,216)" fill-opacity="1"/><circle cx="245.44155877284288" cy="209.53300858899107" r="2.2741596638655475" fill="rgb(162,162,162)" fill-opacity="1"/><circle cx="245.44155877284288" cy="220.13961030678928" r="2.7293417366946797" fill="rgb(149,149,149)" fill-opacity="1"/><circle cx="245.44155877284288" cy="230.7462120245875" r="0.9786414565826329" fill="rgb(199,199,199)" fill-opacity="1"/><circle cx="765.1650429449553" cy="230.7462120245875" r="0.27836134453781497" fill="rgb(219,219,219)" fill-opacity="1"/><circle cx="765.1650429449553" cy="220.13961030678928" r="1.8539915966386555" fill="rgb(174,174,174)" fill-opacity="1"/><circle cx="765.1650429449553" cy="209.53300858899107" r="2.5892857142857153" fill="rgb(153,153,153)" fill-opacity="1"/><circle cx="765.1650429449553" cy="198.92640687119285" r="0.9086134453781514" fill="rgb(201,201,201)" fill-opacity="1"/><circle cx="234.83495705504464" cy="198.92640687119285" r="0.5934873949579835" fill="rgb(210,210,210)" fill-opacity="1"/><circle cx="234.83495705504464" cy="209.53300858899107" r="2.5542717086834736" fill="rgb(154,154,154)" fill-opacity="1"/><circle cx="234.83495705504464" cy="220.13961030678928" r="2.624299719887956" fill="rgb(152,152,152)" fill-opacity="1"/><circle cx="234.83495705504464" cy="230.7462120245875" r="0.8035714285714299" fill="rgb(204,204,204)" fill-opacity="1"/><circle cx="775.7716446627535" cy="230.7462120245875" r="0.48844537815126043" fill="rgb(213,213,213)" fill-opacity="1"/><circle cx="775.7716446627535" cy="220.13961030678928" r="2.2741596638655475" fill="rgb(162,162,162)" fill-opacity="1"/><circle cx="775.7716446627535" cy="209.53300858899107" r="2.79936974789916" fill="rgb(147,147,147)" fill-opacity="1"/><circle cx="775.7716446627535" cy="198.92640687119285" r="0.9086134453781514" fill="rgb(201,201,201)" fill-opacity="1"/><circle cx="224.22835533724646" cy="198.92640687119285" r="0.8035714285714299" fill="rgb(204,204,204)" fill-opacity="1"/><circle cx="224.22835533724646" cy="209.53300858899107" r="2.8343837535014007" fill="rgb(146,146,146)" fill-opacity="1"/><circle cx="224.22835533724646" cy="220.13961030678928" r="2.5542717086834736" fill="rgb(154,154,154)" fill-opacity="1"/><circle cx="224.22835533724646" cy="230.7462120245875" r="0.663515406162466" fill="rgb(208,208,208)" fill-opacity="1"/><circle cx="786.3782463805518" cy="230.7462120245875" r="0.8035714285714299" fill="rgb(204,204,204)" fill-opacity="1"/><circle cx="786.3782463805518" cy="220.13961030678928" r="2.8343837535014007" fill="rgb(146,146,146)" fill-opacity="1"/><circle cx="786.3782463805518" cy="209.53300858899107" r="3.0794817927170874" fill="rgb(139,139,139)" fill-opacity="1"/><circle cx="786.3782463805518" cy="198.92640687119285" r="0.8735994397759115" fill="rgb(202,202,202)" fill-opacity="1"/><circle cx="213.6217536194482" cy="198.92640687119285" r="1.0836834733893561" fill="rgb(196,196,196)" fill-opacity="1"/><circle cx="213.6217536194482" cy="209.53300858899107" r="3.149509803921569" fill="rgb(137,137,137)" fill-opacity="1"/><circle cx="213.6217536194482" cy="220.13961030678928" r="2.449229691876752" fill="rgb(157,157,157)" fill-opacity="1"/><circle cx="213.6217536194482" cy="230.7462120245875" r="0.5234593837535012" fill="rgb(212,212,212)" fill-opacity="1"/><circle cx="796.98484809835" cy="230.7462120245875" r="1.1887254901960784" fill="rgb(193,193,193)" fill-opacity="1"/><circle cx="796.98484809835" cy="220.13961030678928" r="3.3946078431372544" fill="rgb(130,130,130)" fill-opacity="1"/><circle cx="796.98484809835" cy="209.53300858899107" r="3.324579831932773" fill="rgb(132,132,132)" fill-opacity="1"/><circle cx="796.98484809835" cy="198.92640687119285" r="0.8385854341736707" fill="rgb(203,203,203)" fill-opacity="1"/><circle cx="203.01515190165003" cy="198.92640687119285" r="1.3988095238095237" fill="rgb(187,187,187)" fill-opacity="1"/><circle cx="203.01515190165003" cy="209.53300858899107" r="3.3946078431372544" fill="rgb(130,130,130)" fill-opacity="1"/><circle cx="203.01515190165003" cy="220.13961030678928" r="2.379201680672269" fill="rgb(159,159,159)" fill-opacity="1"/><circle cx="203.01515190165003" cy="230.7462120245875" r="0.4184173669467789" fill="rgb(215,215,215)" fill-opacity="1"/><circle cx="807.5914498161483" cy="230.7462120245875" r="1.6088935574229692" fill="rgb(181,181,181)" fill-opacity="1"/><circle cx="807.5914498161483" cy="220.13961030678928" r="4.024859943977591" fill="rgb(112,112,112)" fill-opacity="1"/><circle cx="807.5914498161483" cy="209.53300858899107" r="3.6046918767507" fill="rgb(124,124,124)" fill-opacity="1"/><circle cx="807.5914498161483" cy="198.92640687119285" r="0.8735994397759115" fill="rgb(202,202,202)" fill-opacity="1"/><circle cx="192.4085501838518" cy="188.31980515339464" r="0.06827731092437034" fill="rgb(225,225,225)" fill-opacity="1"/><circle cx="192.4085501838518" cy="198.92640687119285" r="1.7489495798319332" fill="rgb(177,177,177)" fill-opacity="1"/><circle cx="192.4085501838518" cy="209.53300858899107" r="3.6747198879551823" fill="rgb(122,122,122)" fill-opacity="1"/><circle cx="192.4085501838518" cy="220.13961030678928" r="2.2741596638655475" fill="rgb(162,162,162)" fill-opacity="1"/><circle cx="192.4085501838518" cy="230.7462120245875" r="0.3133753501400566" fill="rgb(218,218,218)" fill-opacity="1"/><circle cx="818.1980515339465" cy="241.3528137423857" r="0.06827731092437034" fill="rgb(225,225,225)" fill-opacity="1"/><circle cx="818.1980515339465" cy="230.7462120245875" r="2.099089635854342" fill="rgb(167,167,167)" fill-opacity="1"/><circle cx="818.1980515339465" cy="220.13961030678928" r="4.5850840336134455" fill="rgb(96,96,96)" fill-opacity="1"/><circle cx="818.1980515339465" cy="209.53300858899107" r="3.9198179271708695" fill="rgb(115,115,115)" fill-opacity="1"/><circle cx="818.1980515339465" cy="198.92640687119285" r="0.9786414565826329" fill="rgb(199,199,199)" fill-opacity="1"/><circle cx="181.8019484660536" cy="188.31980515339464" r="0.2433473389355742" fill="rgb(220,220,220)" fill-opacity="1"/><circle cx="181.8019484660536" cy="198.92640687119285" r="2.239145658263306" fill="rgb(163,163,163)" fill-opacity="1"/><circle cx="181.8019484660536" cy="209.53300858899107" r="3.9548319327731103" fill="rgb(114,114,114)" fill-opacity="1"/><circle cx="181.8019484660536" cy="220.13961030678928" r="2.1691176470588243" fill="rgb(165,165,165)" fill-opacity="1"/><circle cx="181.8019484660536" cy="230.7462120245875" r="0.2433473389355742" fill="rgb(220,220,220)" fill-opacity="1"/><circle cx="828.8046532517446" cy="241.3528137423857" r="0.20833333333333343" fill="rgb(221,221,221)" fill-opacity="1"/><circle cx="828.8046532517446" cy="230.7462120245875" r="2.519257703081233" fill="rgb(155,155,155)" fill-opacity="1"/><circle cx="828.8046532517446" cy="220.13961030678928" r="5.040266106442577" fill="rgb(83,83,83)" fill-opacity="1"/><circle cx="828.8046532517446" cy="209.53300858899107" r="4.269957983193278" fill="rgb(105,105,105)" fill-opacity="1"/><circle cx="828.8046532517446" cy="198.92640687119285" r="1.1537114845938377" fill="rgb(194,194,194)" fill-opacity="1"/><circle cx="171.19534674825536" cy="188.31980515339464" r="0.48844537815126043" fill="rgb(213,213,213)" fill-opacity="1"/><circle cx="171.19534674825536" cy="198.92640687119285" r="2.7293417366946797" fill="rgb(149,149,149)" fill-opacity="1"/><circle cx="171.19534674825536" cy="209.53300858899107" r="4.199929971988796" fill="rgb(107,107,107)" fill-opacity="1"/><circle cx="171.19534674825536" cy="220.13961030678928" r="2.099089635854342" fill="rgb(167,167,167)" fill-opacity="1"/><circle cx="171.19534674825536" cy="230.7462120245875" r="0.17331932773109265" fill="rgb(222,222,222)" fill-opacity="1"/><circle cx="839.4112549695428" cy="241.3528137423857" r="0.38340336134453895" fill="rgb(216,216,216)" fill-opacity="1"/><circle cx="839.4112549695428" cy="230.7462120245875" r="2.9394257703081244" fill="rgb(143,143,143)" fill-opacity="1"/><circle cx="839.4112549695428" cy="220.13961030678928" r="5.495448179271709" fill="rgb(70,70,70)" fill-opacity="1"/><circle cx="839.4112549695428" cy="209.53300858899107" r="4.690126050420168" fill="rgb(93,93,93)" fill-opacity="1"/><circle cx="839.4112549695428" cy="198.92640687119285" r="1.4688375350140062" fill="rgb(185,185,185)" fill-opacity="1"/><circle cx="160.58874503045718" cy="188.31980515339464" r="0.8385854341736707" fill="rgb(203,203,203)" fill-opacity="1"/><circle cx="160.58874503045718" cy="198.92640687119285" r="3.3946078431372544" fill="rgb(130,130,130)" fill-opacity="1"/><circle cx="160.58874503045718" cy="209.53300858899107" r="4.480042016806723" fill="rgb(99,99,99)" fill-opacity="1"/><circle cx="160.58874503045718" cy="220.13961030678928" r="1.9940476190476186" fill="rgb(170,170,170)" fill-opacity="1"/><circle cx="160.58874503045718" cy="230.7462120245875" r="0.10329131652661028" fill="rgb(224,224,224)" fill-opacity="1"/><circle cx="850.017856687341" cy="241.3528137423857" r="0.558473389355742" fill="rgb(211,211,211)" fill-opacity="1"/><circle cx="850.017856687341" cy="230.7462120245875" r="3.289565826330532" fill="rgb(133,133,133)" fill-opacity="1"/><circle cx="850.017856687341" cy="220.13961030678928" r="5.810574229691877" fill="rgb(61,61,61)" fill-opacity="1"/><circle cx="850.017856687341" cy="209.53300858899107" r="5.18032212885154" fill="rgb(79,79,79)" fill-opacity="1"/><circle cx="850.017856687341" cy="198.92640687119285" r="1.8890056022408963" fill="rgb(173,173,173)" fill-opacity="1"/><circle cx="850.017856687341" cy="188.31980515339464" r="0.10329131652661028" fill="rgb(224,224,224)" fill-opacity="1"/><circle cx="149.98214331265893" cy="188.31980515339464" r="1.3287815126050422" fill="rgb(189,189,189)" fill-opacity="1"/><circle cx="149.98214331265893" cy="198.92640687119285" r="4.094887955182073" fill="rgb(110,110,110)" fill-opacity="1"/><circle cx="149.98214331265893" cy="209.53300858899107" r="4.725140056022409" fill="rgb(92,92,92)" fill-opacity="1"/><circle cx="149.98214331265893" cy="220.13961030678928" r="1.924019607843137" fill="rgb(172,172,172)" fill-opacity="1"/><circle cx="149.98214331265893" cy="230.7462120245875" r="0.10329131652661028" fill="rgb(224,224,224)" fill-opacity="1"/><circle cx="860.6244584051392" cy="241.3528137423857" r="0.6285014005602252" fill="rgb(209,209,209)" fill-opacity="1"/><circle cx="860.6244584051392" cy="230.7462120245875" r="3.4646358543417377" fill="rgb(128,128,128)" fill-opacity="1"/><circle cx="860.6244584051392" cy="220.13961030678928" r="6.0206582633053225" fill="rgb(55,55,55)" fill-opacity="1"/><circle cx="860.6244584051392" cy="209.53300858899107" r="5.635504201680673" fill="rgb(66,66,66)" fill-opacity="1"/><circle cx="860.6244584051392" cy="198.92640687119285" r="2.484243697478993" fill="rgb(156,156,156)" fill-opacity="1"/><circle cx="860.6244584051392" cy="188.31980515339464" r="0.34838935574229735" fill="rgb(217,217,217)" fill-opacity="1"/><circle cx="139.37554159486075" cy="188.31980515339464" r="1.8539915966386555" fill="rgb(174,174,174)" fill-opacity="1"/><circle cx="139.37554159486075" cy="198.92640687119285" r="4.725140056022409" fill="rgb(92,92,92)" fill-opacity="1"/><circle cx="139.37554159486075" cy="209.53300858899107" r="4.935224089635854" fill="rgb(86,86,86)" fill-opacity="1"/><circle cx="139.37554159486075" cy="220.13961030678928" r="1.8539915966386555" fill="rgb(174,174,174)" fill-opacity="1"/><circle cx="139.37554159486075" cy="230.7462120245875" r="0.06827731092437034" fill="rgb(225,225,225)" fill-opacity="1"/><circle cx="871.2310601229375" cy="241.3528137423857" r="0.663515406162466" fill="rgb(208,208,208)" fill-opacity="1"/><circle cx="871.2310601229375" cy="230.7462120245875" r="3.4996498599439776" fill="rgb(127,127,127)" fill-opacity="1"/><circle cx="871.2310601229375" cy="220.13961030678928" r="6.090686274509804" fill="rgb(53,53,53)" fill-opacity="1"/><circle cx="871.2310601229375" cy="209.53300858899107" r="6.125700280112045" fill="rgb(52,52,52)" fill-opacity="1"/><circle cx="871.2310601229375" cy="198.92640687119285" r="3.324579831932773" fill="rgb(132,132,132)" fill-opacity="1"/><circle cx="871.2310601229375" cy="188.31980515339464" r="0.7685574229691874" fill="rgb(205,205,205)" fill-opacity="1"/><circle cx="128.7689398770625" cy="177.71320343559643" r="0.2433473389355742" fill="rgb(220,220,220)" fill-opacity="1"/><circle cx="128.7689398770625" cy="188.31980515339464" r="2.5542717086834736" fill="rgb(154,154,154)" fill-opacity="1"/><circle cx="128.7689398770625" cy="198.92640687119285" r="5.320378151260505" fill="rgb(75,75,75)" fill-opacity="1"/><circle cx="128.7689398770625" cy="209.53300858899107" r="5.040266106442577" fill="rgb(83,83,83)" fill-opacity="1"/><circle cx="128.7689398770625" cy="220.13961030678928" r="1.8539915966386555" fill="rgb(174,174,174)" fill-opacity="1"/><circle cx="128.7689398770625" cy="230.7462120245875" r="0.06827731092437034" fill="rgb(225,225,225)" fill-opacity="1"/><circle cx="881.8376618407357" cy="241.3528137423857" r="0.5934873949579835" fill="rgb(210,210,210)" fill-opacity="1"/><circle cx="881.8376618407357" cy="230.7462120245875" r="3.3946078431372544" fill="rgb(130,130,130)" fill-opacity="1"/><circle cx="881.8376618407357" cy="220.13961030678928" r="6.0206582633053225" fill="rgb(55,55,55)" fill-opacity="1"/><circle cx="881.8376618407357" cy="209.53300858899107" r="6.545868347338936" fill="rgb(40,40,40)" fill-opacity="1"/><circle cx="881.8376618407357" cy="198.92640687119285" r="4.269957983193278" fill="rgb(105,105,105)" fill-opacity="1"/><circle cx="881.8376618407357" cy="188.31980515339464" r="1.4338235294117645" fill="rgb(186,186,186)" fill-opacity="1"/><circle cx="118.16233815926432" cy="177.71320343559643" r="0.558473389355742" fill="rgb(211,211,211)" fill-opacity="1"/><circle cx="118.16233815926432" cy="188.31980515339464" r="3.2545518207282913" fill="rgb(134,134,134)" fill-opacity="1"/><circle cx="118.16233815926432" cy="198.92640687119285" r="5.810574229691877" fill="rgb(61,61,61)" fill-opacity="1"/><circle cx="118.16233815926432" cy="209.53300858899107" r="5.1453081232493" fill="rgb(80,80,80)" fill-opacity="1"/><circle cx="118.16233815926432" cy="220.13961030678928" r="1.8539915966386555" fill="rgb(174,174,174)" fill-opacity="1"/><circle cx="118.16233815926432" cy="230.7462120245875" r="0.06827731092437034" fill="rgb(225,225,225)" fill-opacity="1"/><circle cx="892.444263558534" cy="241.3528137423857" r="0.4184173669467789" fill="rgb(215,215,215)" fill-opacity="1"/><circle cx="892.444263558534" cy="230.7462120245875" r="3.0444677871148467" fill="rgb(140,140,140)" fill-opacity="1"/><circle cx="892.444263558534" cy="220.13961030678928" r="5.810574229691877" fill="rgb(61,61,61)" fill-opacity="1"/><circle cx="892.444263558534" cy="209.53300858899107" r="6.860994397759105" fill="rgb(31,31,31)" fill-opacity="1"/><circle cx="892.444263558534" cy="198.92640687119285" r="5.285364145658263" fill="rgb(76,76,76)" fill-opacity="1"/><circle cx="892.444263558534" cy="188.31980515339464" r="2.449229691876752" fill="rgb(157,157,157)" fill-opacity="1"/><circle cx="892.444263558534" cy="177.71320343559643" r="0.2433473389355742" fill="rgb(220,220,220)" fill-opacity="1"/><circle cx="107.55573644146608" cy="177.71320343559643" r="1.0486694677871145" fill="rgb(197,197,197)" fill-opacity="1"/><circle cx="107.55573644146608" cy="188.31980515339464" r="4.129901960784314" fill="rgb(109,109,109)" fill-opacity="1"/><circle cx="107.55573644146608" cy="198.92640687119285" r="6.265756302521009" fill="rgb(48,48,48)" fill-opacity="1"/><circle cx="107.55573644146608" cy="209.53300858899107" r="5.215336134453781" fill="rgb(78,78,78)" fill-opacity="1"/><circle cx="107.55573644146608" cy="220.13961030678928" r="1.924019607843137" fill="rgb(172,172,172)" fill-opacity="1"/><circle cx="107.55573644146608" cy="230.7462120245875" r="0.10329131652661028" fill="rgb(224,224,224)" fill-opacity="1"/><circle cx="903.0508652763322" cy="241.3528137423857" r="0.2433473389355742" fill="rgb(220,220,220)" fill-opacity="1"/><circle cx="903.0508652763322" cy="230.7462120245875" r="2.5542717086834736" fill="rgb(154,154,154)" fill-opacity="1"/><circle cx="903.0508652763322" cy="220.13961030678928" r="5.460434173669468" fill="rgb(71,71,71)" fill-opacity="1"/><circle cx="903.0508652763322" cy="209.53300858899107" r="6.931022408963586" fill="rgb(29,29,29)" fill-opacity="1"/><circle cx="903.0508652763322" cy="198.92640687119285" r="6.125700280112045" fill="rgb(52,52,52)" fill-opacity="1"/><circle cx="903.0508652763322" cy="188.31980515339464" r="3.744747899159664" fill="rgb(120,120,120)" fill-opacity="1"/><circle cx="903.0508652763322" cy="177.71320343559643" r="0.9086134453781514" fill="rgb(201,201,201)" fill-opacity="1"/><circle cx="96.9491347236679" cy="167.1066017177982" r="0.03326330532212873" fill="rgb(226,226,226)" fill-opacity="1"/><circle cx="96.9491347236679" cy="177.71320343559643" r="1.7139355742296916" fill="rgb(178,178,178)" fill-opacity="1"/><circle cx="96.9491347236679" cy="188.31980515339464" r="4.935224089635854" fill="rgb(86,86,86)" fill-opacity="1"/><circle cx="96.9491347236679" cy="198.92640687119285" r="6.615896358543417" fill="rgb(38,38,38)" fill-opacity="1"/><circle cx="96.9491347236679" cy="209.53300858899107" r="5.320378151260505" fill="rgb(75,75,75)" fill-opacity="1"/><circle cx="96.9491347236679" cy="220.13961030678928" r="2.029061624649861" fill="rgb(169,169,169)" fill-opacity="1"/><circle cx="96.9491347236679" cy="230.7462120245875" r="0.13830532212885271" fill="rgb(223,223,223)" fill-opacity="1"/><circle cx="913.6574669941303" cy="241.3528137423857" r="0.03326330532212873" fill="rgb(226,226,226)" fill-opacity="1"/><circle cx="913.6574669941303" cy="230.7462120245875" r="2.029061624649861" fill="rgb(169,169,169)" fill-opacity="1"/><circle cx="913.6574669941303" cy="220.13961030678928" r="5.005252100840336" fill="rgb(84,84,84)" fill-opacity="1"/><circle cx="913.6574669941303" cy="209.53300858899107" r="6.860994397759105" fill="rgb(31,31,31)" fill-opacity="1"/><circle cx="913.6574669941303" cy="198.92640687119285" r="6.685924369747899" fill="rgb(36,36,36)" fill-opacity="1"/><circle cx="913.6574669941303" cy="188.31980515339464" r="4.970238095238095" fill="rgb(85,85,85)" fill-opacity="1"/><circle cx="913.6574669941303" cy="177.71320343559643" r="1.8890056022408963" fill="rgb(173,173,173)" fill-opacity="1"/><circle cx="913.6574669941303" cy="167.1066017177982" r="0.17331932773109265" fill="rgb(222,222,222)" fill-opacity="1"/><circle cx="86.34253300586965" cy="167.1066017177982" r="0.34838935574229735" fill="rgb(217,217,217)" fill-opacity="1"/><circle cx="86.34253300586965" cy="177.71320343559643" r="2.484243697478993" fill="rgb(156,156,156)" fill-opacity="1"/><circle cx="86.34253300586965" cy="188.31980515339464" r="5.600490196078432" fill="rgb(67,67,67)" fill-opacity="1"/><circle cx="86.34253300586965" cy="198.92640687119285" r="6.860994397759105" fill="rgb(31,31,31)" fill-opacity="1"/><circle cx="86.34253300586965" cy="209.53300858899107" r="5.425420168067228" fill="rgb(72,72,72)" fill-opacity="1"/><circle cx="86.34253300586965" cy="220.13961030678928" r="2.1691176470588243" fill="rgb(165,165,165)" fill-opacity="1"/><circle cx="86.34253300586965" cy="230.7462120245875" r="0.17331932773109265" fill="rgb(222,222,222)" fill-opacity="1"/><circle cx="924.2640687119285" cy="230.7462120245875" r="1.4338235294117645" fill="rgb(186,186,186)" fill-opacity="1"/><circle cx="924.2640687119285" cy="220.13961030678928" r="4.339985994397759" fill="rgb(103,103,103)" fill-opacity="1"/><circle cx="924.2640687119285" cy="209.53300858899107" r="6.615896358543417" fill="rgb(38,38,38)" fill-opacity="1"/><circle cx="924.2640687119285" cy="198.92640687119285" r="6.966036414565827" fill="rgb(28,28,28)" fill-opacity="1"/><circle cx="924.2640687119285" cy="188.31980515339464" r="6.055672268907563" fill="rgb(54,54,54)" fill-opacity="1"/><circle cx="924.2640687119285" cy="177.71320343559643" r="3.3595938375350136" fill="rgb(131,131,131)" fill-opacity="1"/><circle cx="924.2640687119285" cy="167.1066017177982" r="0.9086134453781514" fill="rgb(201,201,201)" fill-opacity="1"/><circle cx="75.73593128807147" cy="167.1066017177982" r="0.8735994397759115" fill="rgb(202,202,202)" fill-opacity="1"/><circle cx="75.73593128807147" cy="177.71320343559643" r="3.4646358543417377" fill="rgb(128,128,128)" fill-opacity="1"/><circle cx="75.73593128807147" cy="188.31980515339464" r="6.195728291316527" fill="rgb(50,50,50)" fill-opacity="1"/><circle cx="75.73593128807147" cy="198.92640687119285" r="6.966036414565827" fill="rgb(28,28,28)" fill-opacity="1"/><circle cx="75.73593128807147" cy="209.53300858899107" r="5.565476190476191" fill="rgb(68,68,68)" fill-opacity="1"/><circle cx="75.73593128807147" cy="220.13961030678928" r="2.344187675070028" fill="rgb(160,160,160)" fill-opacity="1"/><circle cx="75.73593128807147" cy="230.7462120245875" r="0.2433473389355742" fill="rgb(220,220,220)" fill-opacity="1"/><circle cx="934.8706704297267" cy="230.7462120245875" r="0.8735994397759115" fill="rgb(202,202,202)" fill-opacity="1"/><circle cx="934.8706704297267" cy="220.13961030678928" r="3.5346638655462184" fill="rgb(126,126,126)" fill-opacity="1"/><circle cx="934.8706704297267" cy="209.53300858899107" r="6.230742296918768" fill="rgb(49,49,49)" fill-opacity="1"/><circle cx="934.8706704297267" cy="198.92640687119285" r="7.036064425770309" fill="rgb(26,26,26)" fill-opacity="1"/><circle cx="934.8706704297267" cy="188.31980515339464" r="6.685924369747899" fill="rgb(36,36,36)" fill-opacity="1"/><circle cx="934.8706704297267" cy="177.71320343559643" r="4.795168067226891" fill="rgb(90,90,90)" fill-opacity="1"/><circle cx="934.8706704297267" cy="167.1066017177982" r="2.064075630252101" fill="rgb(168,168,168)" fill-opacity="1"/><circle cx="934.8706704297267" cy="156.5" r="0.13830532212885271" fill="rgb(223,223,223)" fill-opacity="1"/><circle cx="65.12932957027323" cy="167.1066017177982" r="1.503851540616247" fill="rgb(184,184,184)" fill-opacity="1"/><circle cx="65.12932957027323" cy="177.71320343559643" r="4.375" fill="rgb(102,102,102)" fill-opacity="1"/><circle cx="65.12932957027323" cy="188.31980515339464" r="6.615896358543417" fill="rgb(38,38,38)" fill-opacity="1"/><circle cx="65.12932957027323" cy="198.92640687119285" r="7.036064425770309" fill="rgb(26,26,26)" fill-opacity="1"/><circle cx="65.12932957027323" cy="209.53300858899107" r="5.705532212885155" fill="rgb(64,64,64)" fill-opacity="1"/><circle cx="65.12932957027323" cy="220.13961030678928" r="2.519257703081233" fill="rgb(155,155,155)" fill-opacity="1"/><circle cx="65.12932957027323" cy="230.7462120245875" r="0.34838935574229735" fill="rgb(217,217,217)" fill-opacity="1"/><circle cx="945.4772721475249" cy="230.7462120245875" r="0.38340336134453895" fill="rgb(216,216,216)" fill-opacity="1"/><circle cx="945.4772721475249" cy="220.13961030678928" r="2.5542717086834736" fill="rgb(154,154,154)" fill-opacity="1"/><circle cx="945.4772721475249" cy="209.53300858899107" r="5.635504201680673" fill="rgb(66,66,66)" fill-opacity="1"/><circle cx="945.4772721475249" cy="198.92640687119285" r="6.966036414565827" fill="rgb(28,28,28)" fill-opacity="1"/><circle cx="945.4772721475249" cy="188.31980515339464" r="7.0010504201680686" fill="rgb(27,27,27)" fill-opacity="1"/><circle cx="945.4772721475249" cy="177.71320343559643" r="6.055672268907563" fill="rgb(54,54,54)" fill-opacity="1"/><circle cx="945.4772721475249" cy="167.1066017177982" r="3.709733893557423" fill="rgb(121,121,121)" fill-opacity="1"/><circle cx="945.4772721475249" cy="156.5" r="0.9786414565826329" fill="rgb(199,199,199)" fill-opacity="1"/><circle cx="54.52272785247504" cy="156.5" r="0.17331932773109265" fill="rgb(222,222,222)" fill-opacity="1"/><circle cx="54.52272785247504" cy="167.1066017177982" r="2.379201680672269" fill="rgb(159,159,159)" fill-opacity="1"/><circle cx="54.52272785247504" cy="177.71320343559643" r="5.250350140056022" fill="rgb(77,77,77)" fill-opacity="1"/><circle cx="54.52272785247504" cy="188.31980515339464" r="6.896008403361345" fill="rgb(30,30,30)" fill-opacity="1"/><circle cx="54.52272785247504" cy="198.92640687119285" r="7.036064425770309" fill="rgb(26,26,26)" fill-opacity="1"/><circle cx="54.52272785247504" cy="209.53300858899107" r="5.880602240896359" fill="rgb(59,59,59)" fill-opacity="1"/><circle cx="54.52272785247504" cy="220.13961030678928" r="2.79936974789916" fill="rgb(147,147,147)" fill-opacity="1"/><circle cx="54.52272785247504" cy="230.7462120245875" r="0.45343137254901966" fill="rgb(214,214,214)" fill-opacity="1"/><circle cx="956.0838738653232" cy="230.7462120245875" r="0.03326330532212873" fill="rgb(226,226,226)" fill-opacity="1"/><circle cx="956.0838738653232" cy="220.13961030678928" r="1.6088935574229692" fill="rgb(181,181,181)" fill-opacity="1"/><circle cx="956.0838738653232" cy="209.53300858899107" r="4.76015406162465" fill="rgb(91,91,91)" fill-opacity="1"/><circle cx="956.0838738653232" cy="198.92640687119285" r="6.755952380952382" fill="rgb(34,34,34)" fill-opacity="1"/><circle cx="956.0838738653232" cy="188.31980515339464" r="7.036064425770309" fill="rgb(26,26,26)" fill-opacity="1"/><circle cx="956.0838738653232" cy="177.71320343559643" r="6.755952380952382" fill="rgb(34,34,34)" fill-opacity="1"/><circle cx="956.0838738653232" cy="167.1066017177982" r="5.285364145658263" fill="rgb(76,76,76)" fill-opacity="1"/><circle cx="956.0838738653232" cy="156.5" r="2.4142156862745097" fill="rgb(158,158,158)" fill-opacity="1"/><circle cx="956.0838738653232" cy="145.8933982822018" r="0.3133753501400566" fill="rgb(218,218,218)" fill-opacity="1"/><circle cx="43.9161261346768" cy="156.5" r="0.663515406162466" fill="rgb(208,208,208)" fill-opacity="1"/><circle cx="43.9161261346768" cy="167.1066017177982" r="3.3946078431372544" fill="rgb(130,130,130)" fill-opacity="1"/><circle cx="43.9161261346768" cy="177.71320343559643" r="5.985644257703082" fill="rgb(56,56,56)" fill-opacity="1"/><circle cx="43.9161261346768" cy="188.31980515339464" r="7.036064425770309" fill="rgb(26,26,26)" fill-opacity="1"/><circle cx="43.9161261346768" cy="198.92640687119285" r="7.036064425770309" fill="rgb(26,26,26)" fill-opacity="1"/><circle cx="43.9161261346768" cy="209.53300858899107" r="6.055672268907563" fill="rgb(54,54,54)" fill-opacity="1"/><circle cx="43.9161261346768" cy="220.13961030678928" r="3.0794817927170874" fill="rgb(139,139,139)" fill-opacity="1"/><circle cx="43.9161261346768" cy="230.7462120245875" r="0.5934873949579835" fill="rgb(210,210,210)" fill-opacity="1"/><circle cx="966.6904755831214" cy="220.13961030678928" r="0.8735994397759115" fill="rgb(202,202,202)" fill-opacity="1"/><circle cx="966.6904755831214" cy="209.53300858899107" r="3.744747899159664" fill="rgb(120,120,120)" fill-opacity="1"/><circle cx="966.6904755831214" cy="198.92640687119285" r="6.33578431372549" fill="rgb(46,46,46)" fill-opacity="1"/><circle cx="966.6904755831214" cy="188.31980515339464" r="7.036064425770309" fill="rgb(26,26,26)" fill-opacity="1"/><circle cx="966.6904755831214" cy="177.71320343559643" r="7.0010504201680686" fill="rgb(27,27,27)" fill-opacity="1"/><circle cx="966.6904755831214" cy="167.1066017177982" r="6.33578431372549" fill="rgb(46,46,46)" fill-opacity="1"/><circle cx="966.6904755831214" cy="156.5" r="4.024859943977591" fill="rgb(112,112,112)" fill-opacity="1"/><circle cx="966.6904755831214" cy="145.8933982822018" r="1.2237394957983199" fill="rgb(192,192,192)" fill-opacity="1"/><circle cx="33.30952441687862" cy="156.5" r="1.2937675070028023" fill="rgb(190,190,190)" fill-opacity="1"/><circle cx="33.30952441687862" cy="167.1066017177982" r="4.375" fill="rgb(102,102,102)" fill-opacity="1"/><circle cx="33.30952441687862" cy="177.71320343559643" r="6.475840336134454" fill="rgb(42,42,42)" fill-opacity="1"/><circle cx="33.30952441687862" cy="188.31980515339464" r="7.036064425770309" fill="rgb(26,26,26)" fill-opacity="1"/><circle cx="33.30952441687862" cy="198.92640687119285" r="7.036064425770309" fill="rgb(26,26,26)" fill-opacity="1"/><circle cx="33.30952441687862" cy="209.53300858899107" r="6.195728291316527" fill="rgb(50,50,50)" fill-opacity="1"/><circle cx="33.30952441687862" cy="220.13961030678928" r="3.3595938375350136" fill="rgb(131,131,131)" fill-opacity="1"/><circle cx="33.30952441687862" cy="230.7462120245875" r="0.7335434173669466" fill="rgb(206,206,206)" fill-opacity="1"/><circle cx="977.2970773009197" cy="220.13961030678928" r="0.27836134453781497" fill="rgb(219,219,219)" fill-opacity="1"/><circle cx="977.2970773009197" cy="209.53300858899107" r="2.5542717086834736" fill="rgb(154,154,154)" fill-opacity="1"/><circle cx="977.2970773009197" cy="198.92640687119285" r="5.600490196078432" fill="rgb(67,67,67)" fill-opacity="1"/><circle cx="977.2970773009197" cy="188.31980515339464" r="6.896008403361345" fill="rgb(30,30,30)" fill-opacity="1"/><circle cx="977.2970773009197" cy="177.71320343559643" r="7.036064425770309" fill="rgb(26,26,26)" fill-opacity="1"/><circle cx="977.2970773009197" cy="167.1066017177982" r="6.896008403361345" fill="rgb(30,30,30)" fill-opacity="1"/><circle cx="977.2970773009197" cy="156.5" r="5.635504201680673" fill="rgb(66,66,66)" fill-opacity="1"/><circle cx="977.2970773009197" cy="145.8933982822018" r="2.8693977591036415" fill="rgb(145,145,145)" fill-opacity="1"/><circle cx="977.2970773009197" cy="135.28679656440357" r="0.6985294117647058" fill="rgb(207,207,207)" fill-opacity="1"/><circle cx="22.702922699080375" cy="145.8933982822018" r="0.13830532212885271" fill="rgb(223,223,223)" fill-opacity="1"/><circle cx="22.702922699080375" cy="156.5" r="2.1691176470588243" fill="rgb(165,165,165)" fill-opacity="1"/><circle cx="22.702922699080375" cy="167.1066017177982" r="5.320378151260505" fill="rgb(75,75,75)" fill-opacity="1"/><circle cx="22.702922699080375" cy="177.71320343559643" r="6.825980392156864" fill="rgb(32,32,32)" fill-opacity="1"/><circle cx="22.702922699080375" cy="188.31980515339464" r="7.036064425770309" fill="rgb(26,26,26)" fill-opacity="1"/><circle cx="22.702922699080375" cy="198.92640687119285" r="7.036064425770309" fill="rgb(26,26,26)" fill-opacity="1"/><circle cx="22.702922699080375" cy="209.53300858899107" r="6.33578431372549" fill="rgb(46,46,46)" fill-opacity="1"/><circle cx="22.702922699080375" cy="220.13961030678928" r="3.6747198879551823" fill="rgb(122,122,122)" fill-opacity="1"/><circle cx="22.702922699080375" cy="230.7462120245875" r="0.9436274509803921" fill="rgb(200,200,200)" fill-opacity="1"/><circle cx="987.9036790187179" cy="209.53300858899107" r="1.5738795518207294" fill="rgb(182,182,182)" fill-opacity="1"/><circle cx="987.9036790187179" cy="198.92640687119285" r="4.725140056022409" fill="rgb(92,92,92)" fill-opacity="1"/><circle cx="987.9036790187179" cy="188.31980515339464" r="6.615896358543417" fill="rgb(38,38,38)" fill-opacity="1"/><circle cx="987.9036790187179" cy="177.71320343559643" r="7.036064425770309" fill="rgb(26,26,26)" fill-opacity="1"/><circle cx="987.9036790187179" cy="167.1066017177982" r="7.036064425770309" fill="rgb(26,26,26)" fill-opacity="1"/><circle cx="987.9036790187179" cy="156.5" r="6.545868347338936" fill="rgb(40,40,40)" fill-opacity="1"/><circle cx="987.9036790187179" cy="145.8933982822018" r="4.515056022408964" fill="rgb(98,98,98)" fill-opacity="1"/><circle cx="987.9036790187179" cy="135.28679656440357" r="1.8539915966386555" fill="rgb(174,174,174)" fill-opacity="1"/><circle cx="987.9036790187179" cy="124.68019484660536" r="0.10329131652661028" fill="rgb(224,224,224)" fill-opacity="1"/><circle cx="12.09632098128219" cy="145.8933982822018" r="0.5234593837535012" fill="rgb(212,212,212)" fill-opacity="1"/><circle cx="12.09632098128219" cy="156.5" r="3.114495798319328" fill="rgb(138,138,138)" fill-opacity="1"/><circle cx="12.09632098128219" cy="167.1066017177982" r="5.985644257703082" fill="rgb(56,56,56)" fill-opacity="1"/><circle cx="12.09632098128219" cy="177.71320343559643" r="7.0010504201680686" fill="rgb(27,27,27)" fill-opacity="1"/><circle cx="12.09632098128219" cy="188.31980515339464" r="7.036064425770309" fill="rgb(26,26,26)" fill-opacity="1"/><circle cx="12.09632098128219" cy="198.92640687119285" r="7.036064425770309" fill="rgb(26,26,26)" fill-opacity="1"/><circle cx="12.09632098128219" cy="209.53300858899107" r="6.475840336134454" fill="rgb(42,42,42)" fill-opacity="1"/><circle cx="12.09632098128219" cy="220.13961030678928" r="3.9548319327731103" fill="rgb(114,114,114)" fill-opacity="1"/><circle cx="12.09632098128219" cy="230.7462120245875" r="1.1186974789915975" fill="rgb(195,195,195)" fill-opacity="1"/><circle cx="998.510280736516" cy="209.53300858899107" r="0.9086134453781514" fill="rgb(201,201,201)" fill-opacity="1"/><circle cx="998.510280736516" cy="198.92640687119285" r="3.849789915966386" fill="rgb(117,117,117)" fill-opacity="1"/><circle cx="998.510280736516" cy="188.31980515339464" r="6.265756302521009" fill="rgb(48,48,48)" fill-opacity="1"/><circle cx="998.510280736516" cy="177.71320343559643" r="7.036064425770309" fill="rgb(26,26,26)" fill-opacity="1"/><circle cx="998.510280736516" cy="167.1066017177982" r="7.036064425770309" fill="rgb(26,26,26)" fill-opacity="1"/><circle cx="998.510280736516" cy="156.5" r="6.966036414565827" fill="rgb(28,28,28)" fill-opacity="1"/><circle cx="998.510280736516" cy="145.8933982822018" r="5.810574229691877" fill="rgb(61,61,61)" fill-opacity="1"/><circle cx="998.510280736516" cy="135.28679656440357" r="3.2195378151260505" fill="rgb(135,135,135)" fill-opacity="1"/><circle cx="998.510280736516" cy="124.68019484660536" r="0.558473389355742" fill="rgb(211,211,211)" fill-opacity="1"/><circle cx="1.4897192634839485" cy="145.8933982822018" r="0.9436274509803921" fill="rgb(200,200,200)" fill-opacity="1"/><circle cx="1.4897192634839485" cy="156.5" r="3.989845938375351" fill="rgb(113,113,113)" fill-opacity="1"/><circle cx="1.4897192634839485" cy="167.1066017177982" r="6.475840336134454" fill="rgb(42,42,42)" fill-opacity="1"/><circle cx="1.4897192634839485" cy="177.71320343559643" r="7.036064425770309" fill="rgb(26,26,26)" fill-opacity="1"/><circle cx="1.4897192634839485" cy="188.31980515339464" r="7.036064425770309" fill="rgb(26,26,26)" fill-opacity="1"/><circle cx="1.4897192634839485" cy="198.92640687119285" r="7.036064425770309" fill="rgb(26,26,26)" fill-opacity="1"/><circle cx="1.4897192634839485" cy="209.53300858899107" r="6.580882352941177" fill="rgb(39,39,39)" fill-opacity="1"/><circle cx="1.4897192634839485" cy="220.13961030678928" r="4.199929971988796" fill="rgb(107,107,107)" fill-opacity="1"/><circle cx="1.4897192634839485" cy="230.7462120245875" r="1.2587535014005606" fill="rgb(191,191,191)" fill-opacity="1"/><circle cx="1009.1168824543142" cy="209.53300858899107" r="0.8385854341736707" fill="rgb(203,203,203)" fill-opacity="1"/><circle cx="1009.1168824543142" cy="198.92640687119285" r="3.8147759103641454" fill="rgb(118,118,118)" fill-opacity="1"/><circle cx="1009.1168824543142" cy="188.31980515339464" r="6.230742296918768" fill="rgb(49,49,49)" fill-opacity="1"/><circle cx="1009.1168824543142" cy="177.71320343559643" r="7.036064425770309" fill="rgb(26,26,26)" fill-opacity="1"/><circle cx="1009.1168824543142" cy="167.1066017177982" r="7.036064425770309" fill="rgb(26,26,26)" fill-opacity="1"/><circle cx="1009.1168824543142" cy="156.5" r="7.0010504201680686" fill="rgb(27,27,27)" fill-opacity="1"/><circle cx="1009.1168824543142" cy="145.8933982822018" r="5.880602240896359" fill="rgb(59,59,59)" fill-opacity="1"/><circle cx="1009.1168824543142" cy="135.28679656440357" r="3.324579831932773" fill="rgb(132,132,132)" fill-opacity="1"/><circle cx="1009.1168824543142" cy="124.68019484660536" r="0.5934873949579835" fill="rgb(210,210,210)" fill-opacity="1"/><circle cx="-9.116882454314236" cy="145.8933982822018" r="0.9786414565826329" fill="rgb(199,199,199)" fill-opacity="1"/><circle cx="-9.116882454314236" cy="156.5" r="4.024859943977591" fill="rgb(112,112,112)" fill-opacity="1"/><circle cx="-9.116882454314236" cy="167.1066017177982" r="6.475840336134454" fill="rgb(42,42,42)" fill-opacity="1"/><circle cx="-9.116882454314236" cy="177.71320343559643" r="7.036064425770309" fill="rgb(26,26,26)" fill-opacity="1"/><circle cx="-9.116882454314236" cy="188.31980515339464" r="7.036064425770309" fill="rgb(26,26,26)" fill-opacity="1"/><circle cx="-9.116882454314236" cy="198.92640687119285" r="7.036064425770309" fill="rgb(26,26,26)" fill-opacity="1"/><circle cx="-9.116882454314236" cy="209.53300858899107" r="6.580882352941177" fill="rgb(39,39,39)" fill-opacity="1"/><circle cx="-9.116882454314236" cy="220.13961030678928" r="4.199929971988796" fill="rgb(107,107,107)" fill-opacity="1"/><circle cx="-9.116882454314236" cy="230.7462120245875" r="1.2587535014005606" fill="rgb(191,191,191)" fill-opacity="1"/></g></svg>